<svg id="Layer_1" data-name="Layer 1" xmlns="http://www.w3.org/2000/svg" viewBox="0 0 140.37 70"><defs><style>.cls-1{fill:#9ba19a;}.cls-2,.cls-4,.cls-5{fill:#74272a;}.cls-3{fill:#010101;}.cls-4{stroke:#74272a;}.cls-4,.cls-5{stroke-miterlimit:10;stroke-width:3px;}.cls-5{stroke:#1e1e1c;}</style></defs><rect class="cls-1" width="140.37" height="70"/><path class="cls-2" d="M31.35,3.37h1.89l3,8.28L38.6,3.37h2.6l-3.63,11.4H35.12l-2.76-8-2.9,8H27L23.39,3.37H26l2.34,8.28Z" transform="translate(0 0)"/><path class="cls-2" d="M46.52,3.37h1.83l5.74,11.4h-2.7l-4-8.49-4,8.49h-2.7Zm-3,7.44h8v1.8h-8Z" transform="translate(0 0)"/><path class="cls-2" d="M56.19,3.36h2.52V14.77H56.19Zm1,4.91H62.5a2.12,2.12,0,0,0,.93-.19,1.52,1.52,0,0,0,.63-.54,1.61,1.61,0,0,0,.23-.83,1.45,1.45,0,0,0-.22-.81,1.47,1.47,0,0,0-.63-.55,2.13,2.13,0,0,0-.94-.19H57.23V3.36h5.35a5.74,5.74,0,0,1,2.27.42A3.5,3.5,0,0,1,66.37,5a2.93,2.93,0,0,1,.54,1.75,3,3,0,0,1-.54,1.77,3.45,3.45,0,0,1-1.53,1.17,5.69,5.69,0,0,1-2.26.42H57.23Zm3.69,1.45,2.61-.36,4,5.41h-3Z" transform="translate(0 0)"/><path class="cls-2" d="M70.23,3.37H73l6.59,8.78-.26.2v-9h2.44v11.4H79L72.42,6.12l.25-.2v8.85H70.23Z" transform="translate(0 0)"/><path class="cls-2" d="M87.77,14.77H85.2V3.37h2.57Z" transform="translate(0 0)"/><path class="cls-2" d="M91.24,3.37H94l6.59,8.78-.26.2v-9h2.44v11.4H100L93.43,6.12l.25-.2v8.85H91.24Z" transform="translate(0 0)"/><path class="cls-2" d="M117,8.52v2.11a3.85,3.85,0,0,1-.68,2.24,4.37,4.37,0,0,1-1.91,1.49,7.14,7.14,0,0,1-2.87.53,7.61,7.61,0,0,1-2.89-.5,4.45,4.45,0,0,1-1.94-1.4,3.4,3.4,0,0,1-.69-2.11V7.51a3.8,3.8,0,0,1,.68-2.23,4.39,4.39,0,0,1,1.91-1.5,7.31,7.31,0,0,1,2.87-.53,7.08,7.08,0,0,1,2.47.42,5,5,0,0,1,1.89,1.19,3.92,3.92,0,0,1,1,1.78h-2.71a2,2,0,0,0-.58-.81,2.94,2.94,0,0,0-1-.51,3.67,3.67,0,0,0-1.14-.18,3.54,3.54,0,0,0-1.51.3,2.22,2.22,0,0,0-1,.83,2.18,2.18,0,0,0-.36,1.24v3.37A1.8,1.8,0,0,0,109,12a2.31,2.31,0,0,0,1,.75,4.11,4.11,0,0,0,1.54.26,3.78,3.78,0,0,0,1.52-.28,2.17,2.17,0,0,0,1-.8,2.21,2.21,0,0,0,.35-1.26v-.35h-2.71V8.52Z" transform="translate(0 0)"/><path class="cls-3" d="M16.91,21.51h1.45v5.68H17.18V22.86l.05.25-1.66,3.37h-1l-1.66-3.3,0-.32v4.33H11.78V21.51h1.44l1.85,3.79Z" transform="translate(0 0)"/><path class="cls-3" d="M21.36,27.19H20.08V21.51h1.28Z" transform="translate(0 0)"/><path class="cls-3" d="M23.09,21.51h1.25v5.68H23.09Zm.59,4.78h4.41v.9H23.68Z" transform="translate(0 0)"/><path class="cls-3" d="M30.46,27.19H29.19V21.51h1.27Z" transform="translate(0 0)"/><path class="cls-3" d="M31.56,21.51H37v.89H31.56Zm2.12.46h1.25v5.22H33.68Z" transform="translate(0 0)"/><path class="cls-3" d="M39.64,21.51h.91l2.86,5.68H42.06l-2-4.23-2,4.23H36.78Zm-1.51,3.71h4v.89h-4Z" transform="translate(0 0)"/><path class="cls-3" d="M44.46,21.5h1.25v5.69H44.46ZM45,24H47.6a1,1,0,0,0,.46-.1.63.63,0,0,0,.31-.27.69.69,0,0,0,.12-.41.75.75,0,0,0-.11-.4.68.68,0,0,0-.31-.27,1,1,0,0,0-.47-.1H45v-.9h2.66a2.85,2.85,0,0,1,1.13.21,1.78,1.78,0,0,1,.75.59,1.55,1.55,0,0,1,0,1.75,1.76,1.76,0,0,1-.76.59,2.8,2.8,0,0,1-1.12.2H45Zm1.83.72,1.3-.18,2,2.7h-1.5Z" transform="translate(0 0)"/><path class="cls-3" d="M53.83,24.94v2.25H52.58V24.94L50.3,21.51h1.34L53.2,24l1.56-2.5h1.35Z" transform="translate(0 0)"/><path class="cls-3" d="M60.9,27.19H59.62V21.51H60.9Z" transform="translate(0 0)"/><path class="cls-3" d="M62.62,21.51H64l3.27,4.37-.12.1V21.51h1.21v5.67H67l-3.27-4.3.13-.1v4.4H62.62Z" transform="translate(0 0)"/><path class="cls-3" d="M71.42,27.17a6.59,6.59,0,0,1-1-.24,3.79,3.79,0,0,1-.81-.39l.67-.74a3.76,3.76,0,0,0,1,.42,4.91,4.91,0,0,0,1.16.14,2.9,2.9,0,0,0,1.19-.2.64.64,0,0,0,.42-.58h0a.51.51,0,0,0-.19-.42,1.11,1.11,0,0,0-.49-.22,6.67,6.67,0,0,0-.78-.14h-.16a8.76,8.76,0,0,1-1.25-.22,1.92,1.92,0,0,1-.84-.46,1.25,1.25,0,0,1-.35-.94h0a1.37,1.37,0,0,1,.33-.92,2,2,0,0,1,.94-.58,5,5,0,0,1,1.49-.2,4.62,4.62,0,0,1,.82.07,4.46,4.46,0,0,1,.8.2,5.2,5.2,0,0,1,.77.32l-.61.77a4.44,4.44,0,0,0-.89-.35,3.52,3.52,0,0,0-.89-.12,2.6,2.6,0,0,0-1.12.19.63.63,0,0,0-.4.56h0a.5.5,0,0,0,.21.43,1.5,1.5,0,0,0,.51.23,8.52,8.52,0,0,0,.86.15H73a9.51,9.51,0,0,1,1.18.25,1.81,1.81,0,0,1,.79.48,1.21,1.21,0,0,1,.32.9h0a1.32,1.32,0,0,1-.33.91,2.05,2.05,0,0,1-1,.58,5.23,5.23,0,0,1-1.54.2A7.2,7.2,0,0,1,71.42,27.17Z" transform="translate(0 0)"/><path class="cls-3" d="M75.69,21.51h5.48v.89H75.69Zm2.12.46h1.24v5.22H77.81Z" transform="translate(0 0)"/><path class="cls-3" d="M83.77,21.51h.91l2.86,5.68H86.19l-2-4.23-2,4.23H80.91Zm-1.52,3.71h4v.89h-4Z" transform="translate(0 0)"/><path class="cls-3" d="M88.58,21.51h1.25v5.68H88.58Zm.59,4.78h4.41v.9H89.17Z" transform="translate(0 0)"/><path class="cls-3" d="M94.73,21.51H96v5.68H94.73Zm.59,4.78h4.41v.9H95.32Z" transform="translate(0 0)"/><path class="cls-3" d="M103.11,21.51H104l2.86,5.68h-1.34l-2-4.23-2,4.23h-1.35Zm-1.51,3.71h4v.89h-4Z" transform="translate(0 0)"/><path class="cls-3" d="M106.67,21.51h5.48v.89h-5.48Zm2.12.46H110v5.22h-1.25Z" transform="translate(0 0)"/><path class="cls-3" d="M114.32,27.19H113V21.51h1.28Z" transform="translate(0 0)"/><path class="cls-3" d="M117.19,27a2.26,2.26,0,0,1-1-.74,1.8,1.8,0,0,1-.34-1.1V23.54a1.84,1.84,0,0,1,.34-1.1,2.24,2.24,0,0,1,1-.73,4.06,4.06,0,0,1,2.86,0,2.24,2.24,0,0,1,1,.73,1.91,1.91,0,0,1,.34,1.1v1.61a1.87,1.87,0,0,1-.34,1.1,2.26,2.26,0,0,1-1,.74,4.06,4.06,0,0,1-2.86,0Zm2.19-.81a1.17,1.17,0,0,0,.5-.4,1,1,0,0,0,.18-.6V23.52a1,1,0,0,0-.18-.6,1.1,1.1,0,0,0-.5-.4,2.13,2.13,0,0,0-1.52,0,1.05,1.05,0,0,0-.5.4,1,1,0,0,0-.18.6v1.66a1,1,0,0,0,.18.6,1.12,1.12,0,0,0,.5.4,2.13,2.13,0,0,0,1.52,0Z" transform="translate(0 0)"/><path class="cls-3" d="M122.87,21.51h1.36l3.28,4.37-.13.1V21.51h1.21v5.67h-1.37L124,22.88l.12-.1v4.4h-1.21Z" transform="translate(0 0)"/><path class="cls-3" d="M45.1,37.17a1.64,1.64,0,0,1-.74-.56,1.47,1.47,0,0,1-.26-.85V34.52a1.42,1.42,0,0,1,.26-.84,1.73,1.73,0,0,1,.74-.57,3.25,3.25,0,0,1,2.19,0,1.73,1.73,0,0,1,.74.57,1.42,1.42,0,0,1,.26.84v1.24a1.47,1.47,0,0,1-.26.85,1.64,1.64,0,0,1-.74.56,3.1,3.1,0,0,1-2.19,0Zm1.68-.62a.92.92,0,0,0,.39-.31.78.78,0,0,0,.13-.46V34.5a.82.82,0,0,0-.13-.46,1.1,1.1,0,0,0-.39-.31,1.5,1.5,0,0,0-.58-.1,1.55,1.55,0,0,0-.59.1,1,1,0,0,0-.38.31.76.76,0,0,0-.14.46v1.28a.72.72,0,0,0,.14.46.83.83,0,0,0,.38.31,1.55,1.55,0,0,0,.59.11A1.5,1.5,0,0,0,46.78,36.55Z" transform="translate(0 0)"/><path class="cls-3" d="M49.46,33h1v4.36h-1Zm.4,0h3.36v.69H49.86Zm0,1.89h2.92v.69H49.86Z" transform="translate(0 0)"/><path class="cls-3" d="M54.15,33h1v4.36h-1Zm.4,0h3.36v.69H54.55Zm0,1.89h2.92v.69H54.55Z" transform="translate(0 0)"/><path class="cls-3" d="M61,33h1v4.36H61Zm.45,3.68h3.39v.68H61.42Z" transform="translate(0 0)"/><path class="cls-3" d="M66.63,37.32h-1V33h1Z" transform="translate(0 0)"/><path class="cls-3" d="M71.91,33H73v4.36h-.9V34l0,.19-1.28,2.59H70.1l-1.28-2.53,0-.25v3.32H68V33h1.11l1.42,2.91Z" transform="translate(0 0)"/><path class="cls-3" d="M75.33,37.32h-1V33h1Z" transform="translate(0 0)"/><path class="cls-3" d="M76.17,33h4.21v.69H76.17Zm1.63.36h1v4h-1Z" transform="translate(0 0)"/><path class="cls-3" d="M81.93,37.31a4.1,4.1,0,0,1-.73-.18,3.23,3.23,0,0,1-.62-.3l.51-.57a3,3,0,0,0,.76.32,3.68,3.68,0,0,0,.89.11,2.08,2.08,0,0,0,.92-.16.48.48,0,0,0,.32-.44h0a.38.38,0,0,0-.15-.32.91.91,0,0,0-.37-.18l-.6-.1h-.12a6.82,6.82,0,0,1-1-.18,1.34,1.34,0,0,1-.64-.35.94.94,0,0,1-.27-.72h0a1,1,0,0,1,.25-.7,1.54,1.54,0,0,1,.72-.45A3.87,3.87,0,0,1,83,32.92a3.35,3.35,0,0,1,.63,0,3.5,3.5,0,0,1,.62.15,4.35,4.35,0,0,1,.59.25l-.47.59a3.28,3.28,0,0,0-.69-.27A2.71,2.71,0,0,0,83,33.6a2,2,0,0,0-.86.15.47.47,0,0,0-.31.43h0a.41.41,0,0,0,.16.33,1.15,1.15,0,0,0,.39.17q.24.06.66.12h.15a6.67,6.67,0,0,1,.91.2,1.4,1.4,0,0,1,.61.36,1,1,0,0,1,.24.69h0a1,1,0,0,1-.26.7,1.62,1.62,0,0,1-.74.44,4.1,4.1,0,0,1-1.19.15A5.32,5.32,0,0,1,81.93,37.31Z" transform="translate(0 0)"/><path class="cls-3" d="M87.43,33h4.21v.69H87.43Zm1.62.36h1v4h-1Z" transform="translate(0 0)"/><path class="cls-3" d="M93.08,37.17a1.64,1.64,0,0,1-.74-.56,1.47,1.47,0,0,1-.26-.85V34.52a1.42,1.42,0,0,1,.26-.84,1.73,1.73,0,0,1,.74-.57,3.25,3.25,0,0,1,2.19,0,1.73,1.73,0,0,1,.74.57,1.42,1.42,0,0,1,.26.84v1.24a1.47,1.47,0,0,1-.26.85,1.64,1.64,0,0,1-.74.56,3.1,3.1,0,0,1-2.19,0Zm1.68-.62a.92.92,0,0,0,.39-.31.78.78,0,0,0,.13-.46V34.5a.82.82,0,0,0-.13-.46,1.1,1.1,0,0,0-.39-.31,1.5,1.5,0,0,0-.58-.1,1.55,1.55,0,0,0-.59.1,1,1,0,0,0-.38.31.76.76,0,0,0-.14.46v1.28a.72.72,0,0,0,.14.46.83.83,0,0,0,.38.31,1.55,1.55,0,0,0,.59.11A1.5,1.5,0,0,0,94.76,36.55Z" transform="translate(0 0)"/><path class="cls-3" d="M18.58,43.52a1.47,1.47,0,0,1-.71-.55,1.52,1.52,0,0,1-.25-.88V39.3h1v2.81a.8.8,0,0,0,.3.66,1.3,1.3,0,0,0,.83.23,1.32,1.32,0,0,0,.85-.23.82.82,0,0,0,.29-.66V39.3h1v2.79a1.59,1.59,0,0,1-.25.88,1.55,1.55,0,0,1-.72.55,3.49,3.49,0,0,1-2.27,0Z" transform="translate(0 0)"/><path class="cls-3" d="M23,39.3h1.05l2.52,3.36-.1.08V39.3h.93v4.37H26.37l-2.51-3.31.1-.08v3.39H23Z" transform="translate(0 0)"/><path class="cls-3" d="M30.35,39.3h.7l2.19,4.37h-1L30.7,40.42l-1.52,3.25h-1Zm-1.17,2.85h3.08v.69H29.18Z" transform="translate(0 0)"/><path class="cls-3" d="M34.61,43.52a1.5,1.5,0,0,1-.72-.55,1.59,1.59,0,0,1-.24-.88V39.3h1v2.81a.82.82,0,0,0,.29.66,1.65,1.65,0,0,0,1.68,0,.8.8,0,0,0,.3-.66V39.3h1v2.79a1.52,1.52,0,0,1-.25.88,1.45,1.45,0,0,1-.72.55,3.46,3.46,0,0,1-2.26,0Z" transform="translate(0 0)"/><path class="cls-3" d="M38.32,39.3h4.21V40H38.32Zm1.63.36h1v4H40Z" transform="translate(0 0)"/><path class="cls-3" d="M43.26,39.3h1v4.37h-1Zm.51,1.87h3.32v.69H43.77Zm2.75-1.87h1v4.37h-1Z" transform="translate(0 0)"/><path class="cls-3" d="M49.73,43.51A1.7,1.7,0,0,1,49,43a1.45,1.45,0,0,1-.26-.85V40.87A1.47,1.47,0,0,1,49,40a1.7,1.7,0,0,1,.74-.56,3.1,3.1,0,0,1,2.19,0,1.64,1.64,0,0,1,.74.56,1.47,1.47,0,0,1,.26.85V42.1a1.45,1.45,0,0,1-.26.85,1.64,1.64,0,0,1-.74.56,3.1,3.1,0,0,1-2.19,0Zm1.68-.62a1,1,0,0,0,.39-.3.83.83,0,0,0,.13-.47V40.85a.78.78,0,0,0-.13-.46.92.92,0,0,0-.39-.31,1.5,1.5,0,0,0-.58-.11,1.55,1.55,0,0,0-.59.11.83.83,0,0,0-.38.31.72.72,0,0,0-.14.46v1.27a.77.77,0,0,0,.14.47.88.88,0,0,0,.38.3,1.38,1.38,0,0,0,.59.11A1.34,1.34,0,0,0,51.41,42.89Z" transform="translate(0 0)"/><path class="cls-3" d="M54.09,39.3h1v4.37h-1Zm.4,1.88h2a.8.8,0,0,0,.36-.07.61.61,0,0,0,.24-.21.57.57,0,0,0,.09-.32.54.54,0,0,0-.09-.31.5.5,0,0,0-.24-.21A.8.8,0,0,0,56.5,40h-2V39.3h2a2.14,2.14,0,0,1,.87.16,1.4,1.4,0,0,1,.58.45,1.11,1.11,0,0,1,.21.67,1.14,1.14,0,0,1-.21.68,1.4,1.4,0,0,1-.58.45,2.33,2.33,0,0,1-.87.16h-2Zm1.41.55,1-.14,1.54,2.08H57.28Z" transform="translate(0 0)"/><path class="cls-3" d="M60.4,43.67h-1V39.3h1Z" transform="translate(0 0)"/><path class="cls-3" d="M65.13,39.94l-2.48,3h2.56v.69H61.49V43L64,40H61.56V39.3h3.57Z" transform="translate(0 0)"/><path class="cls-3" d="M66.21,39.3h1v4.37h-1Zm.4,0h3.44V40H66.61Zm0,1.86h3v.68h-3Zm0,1.82h3.44v.69H66.61Z" transform="translate(0 0)"/><path class="cls-3" d="M71.14,39.3h1v4.37h-1ZM71.69,43h1.37a1.61,1.61,0,0,0,.92-.22.72.72,0,0,0,.33-.63V40.84a.72.72,0,0,0-.33-.63,1.69,1.69,0,0,0-.92-.22H71.69V39.3H73a3.46,3.46,0,0,1,1.23.19A1.59,1.59,0,0,1,75,40a1.35,1.35,0,0,1,.27.85V42.1a1.4,1.4,0,0,1-.26.84,1.72,1.72,0,0,1-.77.54,3.72,3.72,0,0,1-1.24.19H71.69Z" transform="translate(0 0)"/><path class="cls-3" d="M78.76,39.3h1v4.37h-1Zm.46,2h1.87a1,1,0,0,0,.41-.08.63.63,0,0,0,.28-.23.63.63,0,0,0,0-.68.71.71,0,0,0-.28-.23,1,1,0,0,0-.41-.08H79.22V39.3h1.85a2.5,2.5,0,0,1,.94.17,1.46,1.46,0,0,1,.63.47,1.15,1.15,0,0,1,.23.7,1.13,1.13,0,0,1-.23.7,1.46,1.46,0,0,1-.63.47,2.5,2.5,0,0,1-.94.16H79.22Z" transform="translate(0 0)"/><path class="cls-3" d="M83.81,39.3h1v4.37h-1Zm.4,0h3.44V40H84.21Zm0,1.86h3v.68h-3Zm0,1.82h3.44v.69H84.21Z" transform="translate(0 0)"/><path class="cls-3" d="M88.74,39.3h1v4.37h-1Zm.39,1.88h2a.83.83,0,0,0,.36-.07.61.61,0,0,0,.24-.21.8.8,0,0,0,.09-.32.54.54,0,0,0-.09-.31.55.55,0,0,0-.24-.21.8.8,0,0,0-.36-.07h-2V39.3h2.05a2.14,2.14,0,0,1,.87.16,1.4,1.4,0,0,1,.58.45,1.11,1.11,0,0,1,.21.67,1.14,1.14,0,0,1-.21.68,1.4,1.4,0,0,1-.58.45,2.33,2.33,0,0,1-.87.16H89.13Zm1.42.55,1-.14,1.53,2.08H91.93Z" transform="translate(0 0)"/><path class="cls-3" d="M94.94,43.65a3.9,3.9,0,0,1-.73-.18,2.74,2.74,0,0,1-.62-.3l.51-.57a2.6,2.6,0,0,0,.76.32,3.19,3.19,0,0,0,.89.11,2.23,2.23,0,0,0,.91-.15.51.51,0,0,0,.32-.45h0a.42.42,0,0,0-.14-.32.89.89,0,0,0-.38-.17c-.16,0-.36-.07-.6-.11h-.12a9.41,9.41,0,0,1-1-.17,1.5,1.5,0,0,1-.64-.36.94.94,0,0,1-.27-.72h0a1.08,1.08,0,0,1,.25-.71,1.52,1.52,0,0,1,.73-.45A3.75,3.75,0,0,1,96,39.26a4.46,4.46,0,0,1,.63.05,6.23,6.23,0,0,1,.62.15,6.14,6.14,0,0,1,.59.25l-.47.6a2.94,2.94,0,0,0-.69-.28,2.71,2.71,0,0,0-.68-.09,2,2,0,0,0-.86.15.46.46,0,0,0-.3.43h0a.4.4,0,0,0,.15.33,1.13,1.13,0,0,0,.4.18l.65.11h.15a5.11,5.11,0,0,1,.91.19,1.45,1.45,0,0,1,.61.37.93.93,0,0,1,.25.68h0a1,1,0,0,1-.26.7,1.61,1.61,0,0,1-.75.44,4.08,4.08,0,0,1-1.18.15A5.13,5.13,0,0,1,94.94,43.65Z" transform="translate(0 0)"/><path class="cls-3" d="M99.74,43.51A1.7,1.7,0,0,1,99,43a1.45,1.45,0,0,1-.26-.85V40.87A1.47,1.47,0,0,1,99,40a1.7,1.7,0,0,1,.74-.56,2.84,2.84,0,0,1,1.1-.2,2.92,2.92,0,0,1,1.1.2,1.67,1.67,0,0,1,.73.56,1.4,1.4,0,0,1,.26.85V42.1a1.38,1.38,0,0,1-.26.85,1.67,1.67,0,0,1-.73.56,2.73,2.73,0,0,1-1.1.2A2.67,2.67,0,0,1,99.74,43.51Zm1.68-.62a.85.85,0,0,0,.39-.3.83.83,0,0,0,.13-.47V40.85a.78.78,0,0,0-.13-.46.81.81,0,0,0-.39-.31,1.5,1.5,0,0,0-.58-.11,1.55,1.55,0,0,0-.59.11.83.83,0,0,0-.38.31.78.78,0,0,0-.14.46v1.27a.84.84,0,0,0,.14.47.88.88,0,0,0,.38.3,1.38,1.38,0,0,0,.59.11A1.34,1.34,0,0,0,101.42,42.89Z" transform="translate(0 0)"/><path class="cls-3" d="M104.1,39.3h1.05l2.52,3.36-.1.08V39.3h.93v4.37h-1l-2.51-3.31.09-.08v3.39h-.93Z" transform="translate(0 0)"/><path class="cls-3" d="M109.87,39.3h1l2.52,3.36-.1.08V39.3h.93v4.37h-1l-2.51-3.31.09-.08v3.39h-.93Z" transform="translate(0 0)"/><path class="cls-3" d="M115.64,39.3h1v4.37h-1Zm.4,0h3.44V40H116Zm0,1.86h3v.68h-3ZM116,43h3.44v.69H116Z" transform="translate(0 0)"/><path class="cls-3" d="M120.57,39.3h1v4.37h-1ZM121,43h3.39v.69H121Z" transform="translate(0 0)"/><path class="cls-3" d="M26.28,49.08h.46l1.39,2.82h-.57l-1-2.27L25.46,51.9h-.57Zm-.75,1.83h2v.37h-2Z" transform="translate(0 0)"/><path class="cls-3" d="M29.05,51.81a.92.92,0,0,1-.61-.93v-1.8H29V50.9a.57.57,0,0,0,.21.47.89.89,0,0,0,.58.17.92.92,0,0,0,.59-.17.57.57,0,0,0,.21-.47V49.08h.53v1.8a.92.92,0,0,1-.61.93,1.94,1.94,0,0,1-.72.12A1.88,1.88,0,0,1,29.05,51.81Z" transform="translate(0 0)"/><path class="cls-3" d="M31.46,49.08h2.66v.38H31.46Zm1.06.24h.53V51.9h-.53Z" transform="translate(0 0)"/><path class="cls-3" d="M34.64,49.08h.53V51.9h-.53ZM35,50.33h2.09v.37H35Zm1.81-1.25h.53V51.9h-.53Z" transform="translate(0 0)"/><path class="cls-3" d="M38.8,51.8a1.16,1.16,0,0,1-.47-.36.94.94,0,0,1-.16-.55v-.8a.93.93,0,0,1,.16-.54,1.1,1.1,0,0,1,.47-.37,2.07,2.07,0,0,1,1.39,0,1.1,1.1,0,0,1,.47.37.93.93,0,0,1,.16.54v.8a.94.94,0,0,1-.16.55,1.16,1.16,0,0,1-.47.36,1.92,1.92,0,0,1-1.39,0Zm1.11-.34a.6.6,0,0,0,.27-.22.56.56,0,0,0,.1-.33v-.83a.52.52,0,0,0-.1-.33.62.62,0,0,0-.27-.23,1.07,1.07,0,0,0-.41-.07,1.09,1.09,0,0,0-.42.07.68.68,0,0,0-.27.23.52.52,0,0,0-.1.33v.83a.56.56,0,0,0,.1.33.66.66,0,0,0,.27.22,1.08,1.08,0,0,0,.42.08A1.07,1.07,0,0,0,39.91,51.46Z" transform="translate(0 0)"/><path class="cls-3" d="M41.63,49.08h.53V51.9h-.53Zm.23,1.25h1.29a.53.53,0,0,0,.26,0,.45.45,0,0,0,.18-.15.39.39,0,0,0,.07-.23.35.35,0,0,0-.07-.23.44.44,0,0,0-.17-.16.76.76,0,0,0-.27,0H41.86v-.38h1.27a1.66,1.66,0,0,1,.57.1.88.88,0,0,1,.38.29.64.64,0,0,1,.14.43.63.63,0,0,1-.14.42.86.86,0,0,1-.38.29,1.48,1.48,0,0,1-.57.1H41.86Zm1,.29.52-.09,1,1.37h-.63Z" transform="translate(0 0)"/><path class="cls-3" d="M45.62,51.9h-.53V49.08h.53Z" transform="translate(0 0)"/><path class="cls-3" d="M46.25,49.08h2.66v.38H46.25Zm1.06.24h.53V51.9h-.53Z" transform="translate(0 0)"/><path class="cls-3" d="M50.77,50.76V51.9h-.53V50.76l-1.15-1.68h.59l.83,1.28.82-1.28h.59Z" transform="translate(0 0)"/><path class="cls-3" d="M51.81,49.87h.55v.42h-.55Zm0,1.62h.55v.41h-.55Z" transform="translate(0 0)"/><path class="cls-3" d="M55.11,51.9h-.53V49.08h.53Z" transform="translate(0 0)"/><path class="cls-3" d="M56,49.89h.53v2H56Zm1.64.79a.4.4,0,0,0-.15-.33.72.72,0,0,0-.42-.11.68.68,0,0,0-.4.1.34.34,0,0,0-.14.29l-.05-.39a.87.87,0,0,1,.32-.28,1,1,0,0,1,.45-.1,1,1,0,0,1,.68.22.75.75,0,0,1,.24.6V51.9h-.53Z" transform="translate(0 0)"/><path class="cls-3" d="M58.75,49.89H60v.36H58.75Zm.43,1.89a.52.52,0,0,1-.15-.4V49.31h.53v2.07a.13.13,0,0,0,.16.15H60v.38h-.31A.74.74,0,0,1,59.18,51.78Z" transform="translate(0 0)"/><path class="cls-3" d="M61.16,51.83a1,1,0,0,1-.4-.31.88.88,0,0,1-.14-.49V50.8a.92.92,0,0,1,.13-.51.83.83,0,0,1,.39-.32,1.62,1.62,0,0,1,.61-.11,1.16,1.16,0,0,1,.58.13.78.78,0,0,1,.36.36,1.14,1.14,0,0,1,.13.57v.13H61v-.31h1.32a.61.61,0,0,0-.17-.39.57.57,0,0,0-.4-.13.7.7,0,0,0-.46.14.54.54,0,0,0-.17.42V51a.45.45,0,0,0,.18.38.8.8,0,0,0,.5.13.89.89,0,0,0,.32,0,.8.8,0,0,0,.28-.13l.35.26a1.57,1.57,0,0,1-.45.22,1.69,1.69,0,0,1-.5.08A2,2,0,0,1,61.16,51.83Z" transform="translate(0 0)"/><path class="cls-3" d="M63.55,49.89h.53v2h-.53Zm1.3.38a.88.88,0,0,0-.24,0,.63.63,0,0,0-.39.1.33.33,0,0,0-.14.29L64,50.24a.89.89,0,0,1,.76-.38,1.06,1.06,0,0,1,.6.16l-.35.35A.4.4,0,0,0,64.85,50.27Z" transform="translate(0 0)"/><path class="cls-3" d="M65.93,51.78a.53.53,0,0,1-.24-.47.5.5,0,0,1,.22-.45,1.26,1.26,0,0,1,.69-.15h.76l0,.32h-.8a.53.53,0,0,0-.31.07.22.22,0,0,0-.1.21.22.22,0,0,0,.13.22.89.89,0,0,0,.42.08,1.64,1.64,0,0,0,.45,0q.15,0,.15-.15l0,.28a.47.47,0,0,1-.17.14.84.84,0,0,1-.24.07,1.39,1.39,0,0,1-.3,0A1.5,1.5,0,0,1,65.93,51.78Zm1.41-1.15a.37.37,0,0,0-.14-.31.68.68,0,0,0-.4-.11,1.12,1.12,0,0,0-.32,0,1.08,1.08,0,0,0-.27.1l-.39-.2a1.08,1.08,0,0,1,.4-.21,2,2,0,0,1,.56-.08,1.62,1.62,0,0,1,.57.09.78.78,0,0,1,.37.26.65.65,0,0,1,.12.4V51.9h-.5Z" transform="translate(0 0)"/><path class="cls-3" d="M69.18,51.38a.16.16,0,0,0,0,.12.21.21,0,0,0,.12,0h.25v.38h-.31a.73.73,0,0,1-.47-.14.47.47,0,0,1-.16-.39v-2.3h.53Z" transform="translate(0 0)"/><path class="cls-3" d="M72.28,51.89a1.66,1.66,0,0,1-.45-.12,2.09,2.09,0,0,1-.4-.19l.33-.3a1.89,1.89,0,0,0,.48.21,2.45,2.45,0,0,0,.56.07,1.4,1.4,0,0,0,.64-.12.34.34,0,0,0,.22-.32h0a.28.28,0,0,0-.1-.23.71.71,0,0,0-.26-.13l-.42-.08H72.8a5.16,5.16,0,0,1-.61-.1,1,1,0,0,1-.41-.23.62.62,0,0,1-.17-.46h0a.67.67,0,0,1,.16-.45,1,1,0,0,1,.46-.28,2.53,2.53,0,0,1,.72-.09,2.6,2.6,0,0,1,.4,0,1.86,1.86,0,0,1,.39.1,2,2,0,0,1,.37.16l-.3.31a1.92,1.92,0,0,0-.43-.17,1.54,1.54,0,0,0-.43-.06,1.37,1.37,0,0,0-.6.11.37.37,0,0,0-.21.33h0a.26.26,0,0,0,.11.23.56.56,0,0,0,.27.12,2.82,2.82,0,0,0,.46.08h.1a3.31,3.31,0,0,1,.57.12,1,1,0,0,1,.38.23.6.6,0,0,1,.16.44h0a.62.62,0,0,1-.17.44.87.87,0,0,1-.47.28,2.39,2.39,0,0,1-.75.1A3,3,0,0,1,72.28,51.89Z" transform="translate(0 0)"/><path class="cls-3" d="M75.35,51.83a1,1,0,0,1-.4-.31.88.88,0,0,1-.14-.49V50.8a.92.92,0,0,1,.13-.51.83.83,0,0,1,.39-.32,1.62,1.62,0,0,1,.61-.11,1.16,1.16,0,0,1,.58.13.86.86,0,0,1,.37.36,1.26,1.26,0,0,1,.12.57v.13H75.19v-.31h1.32a.61.61,0,0,0-.17-.39.57.57,0,0,0-.4-.13.7.7,0,0,0-.46.14.54.54,0,0,0-.17.42V51a.45.45,0,0,0,.18.38.82.82,0,0,0,.5.13.86.86,0,0,0,.32,0,.8.8,0,0,0,.28-.13l.35.26a1.57,1.57,0,0,1-.45.22,1.69,1.69,0,0,1-.5.08A2,2,0,0,1,75.35,51.83Z" transform="translate(0 0)"/><path class="cls-3" d="M78.2,51.83a.83.83,0,0,1-.4-.3.82.82,0,0,1-.14-.47v-.34a.78.78,0,0,1,.14-.46.83.83,0,0,1,.4-.3,1.89,1.89,0,0,1,.63-.1,1.61,1.61,0,0,1,.39,0,1.13,1.13,0,0,1,.34.11.86.86,0,0,1,.24.17l-.38.26a.65.65,0,0,0-.27-.15.83.83,0,0,0-.32,0,.8.8,0,0,0-.47.12.45.45,0,0,0-.17.36v.34a.43.43,0,0,0,.17.36.73.73,0,0,0,.47.13.91.91,0,0,0,.33,0,.76.76,0,0,0,.26-.16l.38.27a.8.8,0,0,1-.25.18,1.43,1.43,0,0,1-.33.1,2,2,0,0,1-1-.06Z" transform="translate(0 0)"/><path class="cls-3" d="M80.85,51.11a.4.4,0,0,0,.15.33.6.6,0,0,0,.4.11.64.64,0,0,0,.4-.1.33.33,0,0,0,.15-.29l0,.42a.6.6,0,0,1-.27.25.9.9,0,0,1-.46.1,1,1,0,0,1-.68-.21.76.76,0,0,1-.25-.61V49.89h.53ZM82,49.89h.52v2H82Z" transform="translate(0 0)"/><path class="cls-3" d="M83.28,49.89h.53v2h-.53Zm1.31.38a1,1,0,0,0-.25,0,.63.63,0,0,0-.39.1.36.36,0,0,0-.14.29l-.06-.39a1,1,0,0,1,.33-.28.88.88,0,0,1,.43-.1,1.18,1.18,0,0,1,.34,0,1,1,0,0,1,.26.12l-.35.35A.32.32,0,0,0,84.59,50.27Z" transform="translate(0 0)"/><path class="cls-3" d="M85.55,49.08h.53v.4h-.53Zm0,.81h.53v2h-.53Z" transform="translate(0 0)"/><path class="cls-3" d="M86.68,49.89h1.21v.36H86.68Zm.43,1.89a.49.49,0,0,1-.16-.4V49.31h.53v2.07a.13.13,0,0,0,.16.15h.25v.38h-.31A.69.69,0,0,1,87.11,51.78Z" transform="translate(0 0)"/><path class="cls-3" d="M88.33,49.89h.54l.83,1.75-.29.43Zm2.39,0-1.15,2.48a.52.52,0,0,1-.16.22.64.64,0,0,1-.25.11,1.31,1.31,0,0,1-.37,0h-.1v-.38h.1a.54.54,0,0,0,.24,0,.31.31,0,0,0,.15-.15l1-2.27Z" transform="translate(0 0)"/><path class="cls-3" d="M93.69,49.08h.46l1.39,2.82H95l-1-2.27-1,2.27H92.3Zm-.75,1.83h2v.37h-2Z" transform="translate(0 0)"/><path class="cls-3" d="M96.51,51.83a.85.85,0,0,1-.39-.3.75.75,0,0,1-.14-.47v-.34a.72.72,0,0,1,.14-.46.85.85,0,0,1,.39-.3,2,2,0,0,1,.63-.1,1.7,1.7,0,0,1,.4,0,1.17,1.17,0,0,1,.33.11.92.92,0,0,1,.25.17l-.38.26a.72.72,0,0,0-.27-.15.86.86,0,0,0-.32,0,.8.8,0,0,0-.47.12.42.42,0,0,0-.17.36v.34a.42.42,0,0,0,.16.36.78.78,0,0,0,.48.13.86.86,0,0,0,.32,0,.81.81,0,0,0,.27-.16l.38.27a.94.94,0,0,1-.25.18,1.59,1.59,0,0,1-.33.1,2,2,0,0,1-1-.06Z" transform="translate(0 0)"/><path class="cls-3" d="M98.5,49.89h1.21v.36H98.5Zm.43,1.89a.53.53,0,0,1-.16-.4V49.31h.53v2.07a.13.13,0,0,0,.16.15h.25v.38h-.3A.71.71,0,0,1,98.93,51.78Z" transform="translate(0 0)"/><path class="cls-3" d="M100.35,51.49h.55v.62l-.55.43Z" transform="translate(0 0)"/><path class="cls-3" d="M103.59,51.85a.86.86,0,0,1-.36-.25.79.79,0,0,1-.18-.38h.53a.3.3,0,0,0,.16.24.64.64,0,0,0,.36.09.53.53,0,0,0,.39-.13.42.42,0,0,0,.14-.35v-.24a.45.45,0,0,0-.14-.36.57.57,0,0,0-.39-.12.66.66,0,0,0-.27.06.65.65,0,0,0-.22.16h-.48V49.08h1.92v.38h-1.39v.63a.73.73,0,0,1,.22-.09,1,1,0,0,1,.25,0,1.37,1.37,0,0,1,.56.1.77.77,0,0,1,.35.29.89.89,0,0,1,.12.47v.24a.76.76,0,0,1-.49.76,1.42,1.42,0,0,1-.57.1A1.6,1.6,0,0,1,103.59,51.85Z" transform="translate(0 0)"/><path class="cls-3" d="M106.85,51.9h-.53V49.51l-.54.25v-.41l.54-.27h.53Z" transform="translate(0 0)"/><path class="cls-3" d="M26,57.11h.62v2.82H26Zm.3,1.28h1.21a.71.71,0,0,0,.26,0,.52.52,0,0,0,.18-.15A.38.38,0,0,0,28,58a.43.43,0,0,0-.06-.22.37.37,0,0,0-.18-.14.55.55,0,0,0-.26-.06H26.27v-.44h1.19a1.57,1.57,0,0,1,.6.11.86.86,0,0,1,.41.3.72.72,0,0,1,.15.45.73.73,0,0,1-.15.46.86.86,0,0,1-.41.3,1.57,1.57,0,0,1-.6.1H26.27Z" transform="translate(0 0)"/><path class="cls-3" d="M29.8,59.83a1,1,0,0,1-.47-.36,1,1,0,0,1-.15-.56v-1.8h.62v1.81a.51.51,0,0,0,.19.43.83.83,0,0,0,.54.15.87.87,0,0,0,.54-.15.51.51,0,0,0,.19-.43V57.11h.62v1.8a.94.94,0,0,1-.62.92,2,2,0,0,1-.73.13A2,2,0,0,1,29.8,59.83Z" transform="translate(0 0)"/><path class="cls-3" d="M32.66,57.11h.67L35,59.28l-.06,0V57.11h.6v2.81h-.68L33.2,57.79l.06,0v2.18h-.6Z" transform="translate(0 0)"/><path class="cls-3" d="M37,59.93h-.63V57.11H37Z" transform="translate(0 0)"/><path class="cls-3" d="M38.48,59.92A3.09,3.09,0,0,1,38,59.8a2.22,2.22,0,0,1-.41-.19l.33-.37a1.63,1.63,0,0,0,.49.2,2.2,2.2,0,0,0,.58.08,1.35,1.35,0,0,0,.59-.11.3.3,0,0,0,.21-.28h0a.27.27,0,0,0-.1-.21.53.53,0,0,0-.24-.11l-.39-.07H39a3.7,3.7,0,0,1-.62-.11,1,1,0,0,1-.42-.23.62.62,0,0,1-.17-.46h0a.71.71,0,0,1,.16-.46,1,1,0,0,1,.47-.29,2.32,2.32,0,0,1,.74-.1,1.81,1.81,0,0,1,.4,0,2.59,2.59,0,0,1,.4.09,2.71,2.71,0,0,1,.39.17l-.31.38a1.85,1.85,0,0,0-.44-.18,1.72,1.72,0,0,0-.44-.06,1.22,1.22,0,0,0-.56.1.29.29,0,0,0-.19.27h0a.24.24,0,0,0,.1.21.64.64,0,0,0,.25.11l.43.08h.09a4.47,4.47,0,0,1,.59.13.85.85,0,0,1,.39.23.61.61,0,0,1,.16.45h0a.6.6,0,0,1-.17.45,1,1,0,0,1-.48.29A2.75,2.75,0,0,1,39,60,4.55,4.55,0,0,1,38.48,59.92Z" transform="translate(0 0)"/><path class="cls-3" d="M41.07,57.11h.62v2.82h-.62Zm.33,1.2h2.15v.45H41.4Zm1.78-1.2h.62v2.82h-.62Z" transform="translate(0 0)"/><path class="cls-3" d="M47.22,57.11h.72v2.82h-.58V57.78l0,.12-.82,1.67h-.5l-.83-1.63,0-.16v2.15h-.58V57.11h.72L46.31,59Z" transform="translate(0 0)"/><path class="cls-3" d="M48.82,57.11h.62v2.82h-.62Zm.26,0H51.3v.44H49.08Zm0,1.2H51v.44H49.08Zm0,1.17H51.3v.45H49.08Z" transform="translate(0 0)"/><path class="cls-3" d="M52,57.11h.67l1.63,2.17-.06,0V57.11h.6v2.81h-.68l-1.62-2.13.06,0v2.18H52Z" transform="translate(0 0)"/><path class="cls-3" d="M55.41,57.11h2.72v.44H55.41Zm1.05.23h.62v2.59h-.62Z" transform="translate(0 0)"/><path class="cls-3" d="M58.13,57.92h.63v.47h-.63Zm0,1.53h.63v.48h-.63Z" transform="translate(0 0)"/><path class="cls-3" d="M61.49,59.84a1,1,0,0,1-.45-.35,1.05,1.05,0,0,1-.15-.57V57.11h.45v1.82a.65.65,0,0,0,.22.52,1.09,1.09,0,0,0,.65.17,1.11,1.11,0,0,0,.66-.17.62.62,0,0,0,.22-.52V57.11h.45v1.81a1.05,1.05,0,0,1-.15.57,1,1,0,0,1-.45.35,1.92,1.92,0,0,1-.73.12A1.9,1.9,0,0,1,61.49,59.84Z" transform="translate(0 0)"/><path class="cls-3" d="M64.37,57.92h.46v2.82h-.46Zm.72,1.95a.56.56,0,0,1-.3-.26l0-.42a.4.4,0,0,0,.07.24.49.49,0,0,0,.21.16.66.66,0,0,0,.32.07.73.73,0,0,0,.47-.14.45.45,0,0,0,.16-.38v-.43a.47.47,0,0,0-.16-.39.73.73,0,0,0-.47-.14.79.79,0,0,0-.32.07.49.49,0,0,0-.21.16.39.39,0,0,0-.07.23l-.06-.39a.79.79,0,0,1,.35-.27,1.38,1.38,0,0,1,1,0,.77.77,0,0,1,.31.28.88.88,0,0,1,.1.45v.43a.78.78,0,0,1-.11.44.68.68,0,0,1-.32.28,1.24,1.24,0,0,1-.5.1A1.19,1.19,0,0,1,65.09,59.87Z" transform="translate(0 0)"/><path class="cls-3" d="M68.49,57.92H69.7v.29H68.49Zm.43,1.88a.48.48,0,0,1-.16-.4V57.33h.46v2.08a.17.17,0,0,0,0,.15.24.24,0,0,0,.18.06h.25v.32h-.31A.69.69,0,0,1,68.92,59.8Z" transform="translate(0 0)"/><path class="cls-3" d="M70.86,59.85a.88.88,0,0,1-.38-.3.81.81,0,0,1-.13-.47v-.33a.81.81,0,0,1,.13-.47.94.94,0,0,1,.38-.29,1.57,1.57,0,0,1,.6-.1,1.54,1.54,0,0,1,.6.1.88.88,0,0,1,.38.29.81.81,0,0,1,.13.47v.33a.79.79,0,0,1-.13.47.83.83,0,0,1-.38.3,1.53,1.53,0,0,1-.6.11A1.57,1.57,0,0,1,70.86,59.85ZM72,59.49a.51.51,0,0,0,.17-.41v-.33a.5.5,0,0,0-.17-.4.88.88,0,0,0-1,0,.5.5,0,0,0-.17.4v.33a.51.51,0,0,0,.17.41.88.88,0,0,0,1,0Z" transform="translate(0 0)"/><path class="cls-3" d="M75.64,59.93h-.45V57.44l-.62.29v-.35l.54-.27h.53Z" transform="translate(0 0)"/><path class="cls-3" d="M76.44,59.64l1.37-1.35A.87.87,0,0,0,78,58a.43.43,0,0,0,.07-.22h0a.34.34,0,0,0-.15-.3.69.69,0,0,0-.43-.11.78.78,0,0,0-.43.11.48.48,0,0,0-.2.34h-.47a1,1,0,0,1,.19-.42,1,1,0,0,1,.37-.26,1.47,1.47,0,0,1,.53-.09,1.64,1.64,0,0,1,.58.09.69.69,0,0,1,.36.25.66.66,0,0,1,.13.4h0a.66.66,0,0,1-.1.3,1.81,1.81,0,0,1-.26.34L77,59.61h1.55v.32H76.44Z" transform="translate(0 0)"/><path class="cls-3" d="M80.41,57.92h.46l.86,1.8-.24.37Zm2.39,0L81.65,60.4a.58.58,0,0,1-.41.33,1.9,1.9,0,0,1-.37,0h-.1v-.32h.1a.76.76,0,0,0,.29,0,.51.51,0,0,0,.18-.2l1-2.27Z" transform="translate(0 0)"/><path class="cls-3" d="M83.68,59.85a.81.81,0,0,1-.55-.8v-.22a.93.93,0,0,1,.14-.51.83.83,0,0,1,.39-.32,1.42,1.42,0,0,1,.61-.11,1.38,1.38,0,0,1,.57.11.94.94,0,0,1,.37.34,1.13,1.13,0,0,1,.12.54v.18H83.45v-.28h1.46a.61.61,0,0,0-.18-.43.67.67,0,0,0-.46-.15.84.84,0,0,0-.53.16.59.59,0,0,0-.18.46v.25a.49.49,0,0,0,.2.43.88.88,0,0,0,.55.15,1,1,0,0,0,.35-.06.77.77,0,0,0,.3-.15l.3.22a1.67,1.67,0,0,1-.44.23,1.81,1.81,0,0,1-.51.08A1.69,1.69,0,0,1,83.68,59.85Z" transform="translate(0 0)"/><path class="cls-3" d="M86.19,59.8a.52.52,0,0,1-.26-.47.5.5,0,0,1,.23-.44,1.27,1.27,0,0,1,.68-.15h.83l0,.29h-.87a.68.68,0,0,0-.35.07.27.27,0,0,0-.12.23.27.27,0,0,0,.15.25,1.12,1.12,0,0,0,.46.08,1.63,1.63,0,0,0,.5,0c.11,0,.17-.08.17-.15l0,.28a1,1,0,0,1-.19.12,1.38,1.38,0,0,1-.26.07,1.69,1.69,0,0,1-.33,0A1.41,1.41,0,0,1,86.19,59.8Zm1.46-1.15a.39.39,0,0,0-.16-.34.75.75,0,0,0-.45-.12,1.39,1.39,0,0,0-.35,0,1,1,0,0,0-.3.12l-.33-.17a1,1,0,0,1,.41-.22,2.17,2.17,0,0,1,1.13,0,.77.77,0,0,1,.36.26.62.62,0,0,1,.13.4v1.3h-.44Z" transform="translate(0 0)"/><path class="cls-3" d="M88.89,57.92h.45v2h-.45Zm1.34.32a.7.7,0,0,0-.27,0,.73.73,0,0,0-.45.12.39.39,0,0,0-.17.33l0-.38a.87.87,0,0,1,.35-.28,1.12,1.12,0,0,1,.48-.1,1.18,1.18,0,0,1,.34,0,.68.68,0,0,1,.26.11l-.29.29A.53.53,0,0,0,90.23,58.24Z" transform="translate(0 0)"/><path class="cls-3" d="M91.67,59.92a1.59,1.59,0,0,1-.39-.1,1.68,1.68,0,0,1-.33-.16l.27-.24a1.85,1.85,0,0,0,.44.18,1.72,1.72,0,0,0,.44.06,1.32,1.32,0,0,0,.54-.09.26.26,0,0,0,.18-.24.2.2,0,0,0-.09-.18.52.52,0,0,0-.24-.07,2.77,2.77,0,0,0-.39,0H92L91.51,59a.71.71,0,0,1-.3-.15.42.42,0,0,1-.12-.32.49.49,0,0,1,.12-.34.78.78,0,0,1,.36-.21,2,2,0,0,1,.58-.07l.38,0,.35.08a1.46,1.46,0,0,1,.31.14l-.26.24a2.4,2.4,0,0,0-.4-.14,1.81,1.81,0,0,0-.39,0,1.08,1.08,0,0,0-.46.08.28.28,0,0,0-.17.24.16.16,0,0,0,.09.15.52.52,0,0,0,.23.07l.38,0h.08a3.12,3.12,0,0,1,.49.06.64.64,0,0,1,.33.16.45.45,0,0,1,.13.36.47.47,0,0,1-.13.34.81.81,0,0,1-.38.21,2.25,2.25,0,0,1-.63.08A2.86,2.86,0,0,1,91.67,59.92Z" transform="translate(0 0)"/><path class="cls-3" d="M95.38,57.11h.46v.34h-.46Zm0,.81h.46v2h-.46Z" transform="translate(0 0)"/><path class="cls-3" d="M96.68,57.92h.45v2h-.45Zm1.65.79a.43.43,0,0,0-.16-.37.64.64,0,0,0-.44-.14.7.7,0,0,0-.44.12.38.38,0,0,0-.16.33l0-.38a.74.74,0,0,1,.34-.29,1.16,1.16,0,0,1,.47-.09,1.14,1.14,0,0,1,.48.09.71.71,0,0,1,.31.28.88.88,0,0,1,.1.45v1.22h-.45Zm1.65,0a.46.46,0,0,0-.16-.37.69.69,0,0,0-.45-.14.72.72,0,0,0-.44.13.46.46,0,0,0-.15.36l-.13-.34A.82.82,0,0,1,99,58a1,1,0,0,1,.5-.12,1.21,1.21,0,0,1,.5.09.73.73,0,0,1,.32.28.88.88,0,0,1,.11.45v1.22H100Z" transform="translate(0 0)"/><path class="cls-3" d="M101.23,57.92h.46v2.82h-.46Zm.72,1.95a.56.56,0,0,1-.3-.26l0-.42a.4.4,0,0,0,.07.24.49.49,0,0,0,.21.16.66.66,0,0,0,.32.07.73.73,0,0,0,.47-.14.45.45,0,0,0,.16-.38v-.43a.47.47,0,0,0-.16-.39.73.73,0,0,0-.47-.14.79.79,0,0,0-.32.07.49.49,0,0,0-.21.16.39.39,0,0,0-.07.23l-.06-.39A.79.79,0,0,1,102,58a1.38,1.38,0,0,1,1,0,.77.77,0,0,1,.31.28.88.88,0,0,1,.1.45v.43a.78.78,0,0,1-.11.44.73.73,0,0,1-.32.28,1.24,1.24,0,0,1-.5.1A1.19,1.19,0,0,1,102,59.87Z" transform="translate(0 0)"/><path class="cls-3" d="M104.13,57.92h.45v2h-.45Zm1.34.32a.94.94,0,0,0-.73.08.38.38,0,0,0-.16.33l-.06-.38a.84.84,0,0,1,.36-.28,1.06,1.06,0,0,1,.48-.1,1.15,1.15,0,0,1,.33,0A.68.68,0,0,1,106,58l-.29.29A.48.48,0,0,0,105.47,58.24Z" transform="translate(0 0)"/><path class="cls-3" d="M106.43,57.11h.46v.34h-.46Zm0,.81h.46v2h-.46Z" transform="translate(0 0)"/><path class="cls-3" d="M108.24,59.92a1.59,1.59,0,0,1-.39-.1,1.68,1.68,0,0,1-.33-.16l.27-.24a1.85,1.85,0,0,0,.44.18,1.72,1.72,0,0,0,.44.06,1.32,1.32,0,0,0,.54-.09.26.26,0,0,0,.18-.24.2.2,0,0,0-.09-.18.56.56,0,0,0-.24-.07,3,3,0,0,0-.39,0h-.14l-.45-.06a.71.71,0,0,1-.3-.15.42.42,0,0,1-.12-.32.49.49,0,0,1,.12-.34.78.78,0,0,1,.36-.21,2,2,0,0,1,.58-.07l.37,0,.36.08a1.46,1.46,0,0,1,.31.14l-.26.24a2.4,2.4,0,0,0-.4-.14,1.89,1.89,0,0,0-.39,0,1.08,1.08,0,0,0-.46.08.28.28,0,0,0-.17.24.16.16,0,0,0,.09.15.52.52,0,0,0,.23.07l.38,0h.08a2.84,2.84,0,0,1,.48.06.64.64,0,0,1,.34.16.45.45,0,0,1,.13.36.47.47,0,0,1-.13.34.81.81,0,0,1-.38.21,2.25,2.25,0,0,1-.63.08A2.86,2.86,0,0,1,108.24,59.92Z" transform="translate(0 0)"/><path class="cls-3" d="M110.92,59.85a.83.83,0,0,1-.38-.3.81.81,0,0,1-.13-.47v-.33a.81.81,0,0,1,.13-.47.88.88,0,0,1,.38-.29,1.85,1.85,0,0,1,1.2,0,.88.88,0,0,1,.38.29.81.81,0,0,1,.13.47v.33a.79.79,0,0,1-.13.47.83.83,0,0,1-.38.3,1.69,1.69,0,0,1-1.2,0Zm1.09-.36a.51.51,0,0,0,.17-.41v-.33a.5.5,0,0,0-.17-.4.88.88,0,0,0-1,0,.5.5,0,0,0-.17.4v.33a.51.51,0,0,0,.17.41.88.88,0,0,0,1,0Z" transform="translate(0 0)"/><path class="cls-3" d="M113.38,57.92h.46v2h-.46Zm1.72.79a.44.44,0,0,0-.17-.37.73.73,0,0,0-.47-.14.76.76,0,0,0-.46.12.38.38,0,0,0-.16.33l-.06-.39a.87.87,0,0,1,.35-.28,1.35,1.35,0,0,1,.5-.09,1,1,0,0,1,.68.21.78.78,0,0,1,.24.61v1.22h-.45Z" transform="translate(0 0)"/><path class="cls-3" d="M116.35,57.92h.46v2h-.46Zm1.65.79a.45.45,0,0,0-.15-.37.64.64,0,0,0-.44-.14.75.75,0,0,0-.45.12.4.4,0,0,0-.15.33l-.06-.38a.79.79,0,0,1,.34-.29,1.33,1.33,0,0,1,1,0,.74.74,0,0,1,.3.28.88.88,0,0,1,.11.45v1.22H118Zm1.65,0a.43.43,0,0,0-.16-.37.65.65,0,0,0-.45-.14.69.69,0,0,0-.43.13.46.46,0,0,0-.15.36l-.14-.34a.88.88,0,0,1,.35-.34,1.07,1.07,0,0,1,.51-.12,1.28,1.28,0,0,1,.5.09.8.8,0,0,1,.32.28.88.88,0,0,1,.1.45v1.22h-.45Z" transform="translate(0 0)"/><path class="cls-3" d="M121.37,59.85a.84.84,0,0,1-.4-.31.86.86,0,0,1-.14-.49v-.22a1,1,0,0,1,.13-.51.83.83,0,0,1,.39-.32,1.45,1.45,0,0,1,.61-.11,1.43,1.43,0,0,1,.58.11.94.94,0,0,1,.37.34,1.13,1.13,0,0,1,.12.54v.18h-1.88v-.28h1.46a.61.61,0,0,0-.18-.43.68.68,0,0,0-.47-.15.81.81,0,0,0-.52.16.59.59,0,0,0-.18.46v.25a.5.5,0,0,0,.19.43.91.91,0,0,0,.56.15,1.07,1.07,0,0,0,.35-.06.85.85,0,0,0,.3-.15l.3.22a1.67,1.67,0,0,1-.44.23A1.81,1.81,0,0,1,122,60,1.75,1.75,0,0,1,121.37,59.85Z" transform="translate(0 0)"/><path class="cls-3" d="M123.76,57.92h.45v2h-.45Zm1.71.79a.43.43,0,0,0-.16-.37.92.92,0,0,0-.94,0,.38.38,0,0,0-.16.33l0-.39a.81.81,0,0,1,.35-.28,1.26,1.26,0,0,1,.49-.09,1,1,0,0,1,.68.21.78.78,0,0,1,.24.61v1.22h-.45Z" transform="translate(0 0)"/><path class="cls-3" d="M126.52,57.92h1.22v.29h-1.22ZM127,59.8a.51.51,0,0,1-.15-.4V57.33h.45v2.08a.18.18,0,0,0,.06.15.24.24,0,0,0,.17.06h.26v.32h-.31A.71.71,0,0,1,127,59.8Z" transform="translate(0 0)"/><path class="cls-3" d="M58.86,64.56a.54.54,0,0,1-.25-.47.5.5,0,0,1,.23-.44,1.27,1.27,0,0,1,.68-.15h.83l0,.29h-.87a.68.68,0,0,0-.35.07.26.26,0,0,0-.13.23.28.28,0,0,0,.16.25,1.12,1.12,0,0,0,.46.08,1.67,1.67,0,0,0,.5,0c.11,0,.17-.08.17-.15l.05.28a1,1,0,0,1-.19.12,1.38,1.38,0,0,1-.26.07,1.72,1.72,0,0,1-.33,0A1.49,1.49,0,0,1,58.86,64.56Zm1.47-1.15a.41.41,0,0,0-.16-.34.75.75,0,0,0-.45-.12,1.39,1.39,0,0,0-.35,0,1,1,0,0,0-.3.12l-.33-.17a1,1,0,0,1,.41-.22,1.88,1.88,0,0,1,.55-.07,1.93,1.93,0,0,1,.58.08.77.77,0,0,1,.36.26.68.68,0,0,1,.13.4v1.3h-.44Z" transform="translate(0 0)"/><path class="cls-3" d="M61.57,62.68H62v2h-.45Zm1.71.79a.43.43,0,0,0-.16-.37.76.76,0,0,0-.48-.14.78.78,0,0,0-.46.12.41.41,0,0,0-.16.33L62,63a.81.81,0,0,1,.35-.28,1.31,1.31,0,0,1,.5-.09,1,1,0,0,1,.68.21.78.78,0,0,1,.24.61v1.22h-.46Z" transform="translate(0 0)"/><path class="cls-3" d="M64.89,64.62a.68.68,0,0,1-.32-.28.87.87,0,0,1-.11-.44v-.44a.87.87,0,0,1,.11-.44.65.65,0,0,1,.31-.28,1.22,1.22,0,0,1,.49-.1,1.26,1.26,0,0,1,.49.09.85.85,0,0,1,.35.27l-.06.4a.39.39,0,0,0-.07-.23.51.51,0,0,0-.21-.17.81.81,0,0,0-.33-.06.7.7,0,0,0-.46.14.48.48,0,0,0-.17.39v.43a.46.46,0,0,0,.17.38.7.7,0,0,0,.46.14.81.81,0,0,0,.33-.06.6.6,0,0,0,.21-.17.4.4,0,0,0,.07-.24l0,.42a.62.62,0,0,1-.29.26,1.39,1.39,0,0,1-1,0Zm1.26-2.75h.45v2.82h-.45Z" transform="translate(0 0)"/><path class="cls-3" d="M69.44,64.67a1.86,1.86,0,0,1-.42-.12,2.71,2.71,0,0,1-.37-.21l.28-.28a1.88,1.88,0,0,0,.46.25,1.78,1.78,0,0,0,.53.08,1.13,1.13,0,0,0,.61-.13.39.39,0,0,0,.21-.36h0a.32.32,0,0,0-.09-.24.68.68,0,0,0-.25-.14L70,63.44h-.1c-.23,0-.42-.07-.57-.11A1,1,0,0,1,69,63.1a.57.57,0,0,1-.15-.42h0a.76.76,0,0,1,.14-.46.8.8,0,0,1,.42-.28,1.91,1.91,0,0,1,.68-.1,2,2,0,0,1,.35,0l.36.09a1.74,1.74,0,0,1,.34.16l-.26.28a1.76,1.76,0,0,0-.4-.18,1.74,1.74,0,0,0-.39,0,1.12,1.12,0,0,0-.58.12.41.41,0,0,0-.2.36h0a.28.28,0,0,0,.11.24.9.9,0,0,0,.26.13l.44.08h.09a3,3,0,0,1,.53.12.82.82,0,0,1,.35.23.61.61,0,0,1,.14.42h0a.68.68,0,0,1-.15.45.84.84,0,0,1-.43.27,2.38,2.38,0,0,1-.7.09A2.45,2.45,0,0,1,69.44,64.67Zm.33-3.14h.45V62h-.45Zm0,3h.45V65h-.45Z" transform="translate(0 0)"/><path class="cls-3" d="M72.28,64.62a.77.77,0,0,1-.36-.3.83.83,0,0,1-.12-.46h0a1,1,0,0,1,0-.33,1.88,1.88,0,0,1,.14-.34l0,0,0-.06.82-1.21h.49l-1,1.4V63.2a.55.55,0,0,1,.21-.14,1,1,0,0,1,.31-.05,1.22,1.22,0,0,1,.53.1.78.78,0,0,1,.33.29.91.91,0,0,1,.11.45h0a.86.86,0,0,1-.12.47.7.7,0,0,1-.36.29,1.42,1.42,0,0,1-.57.1A1.62,1.62,0,0,1,72.28,64.62Zm1-.36a.44.44,0,0,0,.16-.37h0a.5.5,0,0,0-.16-.41.68.68,0,0,0-.47-.15.57.57,0,0,0-.42.15.53.53,0,0,0-.15.41h0a.44.44,0,0,0,.16.37.81.81,0,0,0,.88,0Z" transform="translate(0 0)"/><path class="cls-3" d="M74.57,64.32h.49v.56l-.49.39Z" transform="translate(0 0)"/><path class="cls-3" d="M75.93,64.5a.67.67,0,0,1-.28-.58V62.63a.73.73,0,0,1,.28-.59,1.36,1.36,0,0,1,.8-.21,1.29,1.29,0,0,1,.8.21.69.69,0,0,1,.28.59v1.29a.67.67,0,0,1-.28.58,1.63,1.63,0,0,1-1.6,0Zm1.27-.23a.41.41,0,0,0,.16-.35V62.63a.41.41,0,0,0-.16-.35.68.68,0,0,0-.47-.13.69.69,0,0,0-.47.13.43.43,0,0,0-.16.35v1.29a.43.43,0,0,0,.16.35.69.69,0,0,0,.47.13A.68.68,0,0,0,77.2,64.27Z" transform="translate(0 0)"/><path class="cls-3" d="M78.76,64.5a.67.67,0,0,1-.28-.58V62.63a.7.7,0,0,1,.28-.59,1.36,1.36,0,0,1,.8-.21,1.29,1.29,0,0,1,.8.21.69.69,0,0,1,.28.59v1.29a.7.7,0,0,1-.28.58,1.63,1.63,0,0,1-1.6,0ZM80,64.27a.43.43,0,0,0,.16-.35V62.63a.43.43,0,0,0-.16-.35.69.69,0,0,0-.47-.13.68.68,0,0,0-.47.13.41.41,0,0,0-.16.35v1.29a.41.41,0,0,0,.16.35.68.68,0,0,0,.47.13A.69.69,0,0,0,80,64.27Z" transform="translate(0 0)"/><path class="cls-3" d="M81.59,64.5a.67.67,0,0,1-.28-.58V62.63a.7.7,0,0,1,.28-.59,1.36,1.36,0,0,1,.8-.21,1.29,1.29,0,0,1,.8.21.69.69,0,0,1,.28.59v1.29a.67.67,0,0,1-.28.58,1.63,1.63,0,0,1-1.6,0Zm1.27-.23a.43.43,0,0,0,.16-.35V62.63a.43.43,0,0,0-.16-.35.69.69,0,0,0-.47-.13.68.68,0,0,0-.47.13.41.41,0,0,0-.16.35v1.29a.41.41,0,0,0,.16.35.68.68,0,0,0,.47.13A.69.69,0,0,0,82.86,64.27Z" transform="translate(0 0)"/><path class="cls-3" d="M84.06,64.32h.49v.37h-.49Z" transform="translate(0 0)"/><path class="cls-3" d="M86.54,62.68h1.35V63H86.54Zm.29-.28A.48.48,0,0,1,87,62a.71.71,0,0,1,.48-.13h.42v.32h-.38a.3.3,0,0,0-.18.05.25.25,0,0,0,0,.16v2.29h-.45Z" transform="translate(0 0)"/><path class="cls-3" d="M88.55,61.87H89v.34h-.45Zm0,.81H89v2h-.45Z" transform="translate(0 0)"/><path class="cls-3" d="M89.84,62.68h.46v2h-.46Zm1.72.79a.44.44,0,0,0-.17-.37.73.73,0,0,0-.47-.14.76.76,0,0,0-.46.12.38.38,0,0,0-.16.33L90.24,63a.87.87,0,0,1,.35-.28,1.35,1.35,0,0,1,.5-.09,1,1,0,0,1,.68.21.78.78,0,0,1,.24.61v1.22h-.45Z" transform="translate(0 0)"/><path class="cls-3" d="M93.28,64.61a.82.82,0,0,1-.54-.8v-.22a.92.92,0,0,1,.13-.51.83.83,0,0,1,.39-.32,1.66,1.66,0,0,1,1.19,0,.85.85,0,0,1,.36.34,1,1,0,0,1,.13.54v.18H93.06v-.28h1.45a.54.54,0,0,0-.18-.43.65.65,0,0,0-.46-.15.79.79,0,0,0-.52.16.56.56,0,0,0-.19.46v.25a.51.51,0,0,0,.2.43.91.91,0,0,0,.56.15,1,1,0,0,0,.34-.06.81.81,0,0,0,.31-.15l.3.22a1.59,1.59,0,0,1-.45.23,1.68,1.68,0,0,1-.5.07A1.76,1.76,0,0,1,93.28,64.61Z" transform="translate(0 0)"/><path class="cls-4" d="M20.57,17.25H120" transform="translate(0 0)"/><path class="cls-5" d="M9.93,29.2H131.7" transform="translate(0 0)"/></svg>