<svg id="Layer_1" data-name="Layer 1" xmlns="http://www.w3.org/2000/svg" viewBox="0 0 140.14 50.01"><defs><style>.cls-1{fill:#b2b2b2;}</style></defs><path class="cls-1" d="M140,11c-1,1.75-2.76,4.58-5,8-8.88,13.6-10.38,12.82-14,20-3.08,6.11-4,10.72-7,11-1.68.16-3.1-1.12-4-2-8.16-8-15.31-23.75-21-32-.71-1-2.18-3.08-4-3s-2.91,2.05-4.19,4.26C77.35,23.26,73.51,29,70,35c-1.17,2-2.43,4.08-4,4-1.41-.07-2.35-1.87-3-3-2.75-4.81-3.12-2.7-8.51-10.18C48.48,17.47,47.43,12.74,45,13c-.69.07-.74.47-3,3-3.93,4.4-4.36,3.86-8,8-2.15,2.45-2.23,2.91-3,3-2.36.29-3.5-3.83-9-9.62-3.42-3.63-5.82-5.71-9-6.38-2.4-.5-4.06,0-9-1C1.94,9.58.49,9.14,0,8c-.4-.92.22-1.38,0-4A5,5,0,0,1,0,2,8,8,0,0,1,1,0H140Z" transform="translate(0.14 0)"/><rect class="cls-1" x="0.14" width="140" height="11"/></svg>