<svg id="Layer_1" data-name="Layer 1" xmlns="http://www.w3.org/2000/svg" viewBox="0 0 67 138.38"><defs><style>.cls-1{fill:#155216;}.cls-2{fill:#3aaa35;}.cls-3{fill:#39641f;}.cls-4{fill:#55902f;}.cls-5{fill:#4e842b;}.cls-6{fill:#4a7d29;}.cls-7{fill:#1c5e1b;opacity:0.95;}.cls-8{fill:#6d9a30;}.cls-9{fill:#1e621d;}.cls-10{fill:#4a7639;}</style></defs><path class="cls-1" d="M28.89,54.24a46.9,46.9,0,0,0,.25,7.88A46.14,46.14,0,0,0,30,67.27" transform="translate(-2 -2)"/><path class="cls-2" d="M30.36,74.51c.13.69.24,1.43.32,2.22a23.88,23.88,0,0,1,0,4.79" transform="translate(-2 -2)"/><path class="cls-3" d="M45.34,49.93l1,0h0C46,72.33,43.84,81,42.59,84.6c-.49,1.41-2,5.71-2.55,5.61-.3-.06-.22-1.31-.12-2.74a161.62,161.62,0,0,1,1.64-16.26c.16-1,.41-2.57.73-4.42" transform="translate(-2 -2)"/><path class="cls-4" d="M63.67,48.93c.1-.17,1-1.7,2.31-1.72,1.58,0,2.47,1.82,2.62,2.15a4.86,4.86,0,0,1,.24,3.18c-.51,2.54-.19,5.15-.48,7.72-.73,6.43-.49,5.46-.85,8.05a87.25,87.25,0,0,1-2.69,13.12c-2.1,7.18-3.15,10.76-5.9,14.7a26.43,26.43,0,0,1-12.35,9.66c-.8.29-3.08,1.17-3.85.44-.45-.43-.23-1.25-.12-1.67a6.21,6.21,0,0,1,1.82-2.63c1.36-1.46,1.15-2.18,2.2-3.88,1.55-2.51,3.13-2.78,5.05-4.71.85-.85,1.26-1.52,3.66-7.89S59,75.7,59.16,74.38a36.46,36.46,0,0,1,1.28-7.62,30.48,30.48,0,0,1,1.28-3.39" transform="translate(-2 -2)"/><path class="cls-1" d="M54.88,92.34a76.64,76.64,0,0,0,5.2-11.07,51.39,51.39,0,0,0,1.74-5.33c-.08,0-1.36,3.38-2.56,6.62" transform="translate(-2 -2)"/><path class="cls-1" d="M63.73,69a77.53,77.53,0,0,1-3.94,14.07c-2,5.17-4.2,9.38-4.1,9.42a57.34,57.34,0,0,0,3.53-7,82.89,82.89,0,0,0,3.41-8.88" transform="translate(-2 -2)"/><path class="cls-1" d="M54.07,93.55c-.21.31-.49.71-.84,1.16a20,20,0,0,1-1.52,1.71,17.31,17.31,0,0,1-2.27,1.89" transform="translate(-2 -2)"/><path class="cls-2" d="M55.08,93.52a20.43,20.43,0,0,1-1.66,2.36,22.38,22.38,0,0,1-2,2.08" transform="translate(-2 -2)"/><path class="cls-1" d="M66.69,49.3a75.88,75.88,0,0,1-.85,12.14,64.41,64.41,0,0,1-1.38,7s.16-1.41,1.38-8.38" transform="translate(-2 -2)"/><path class="cls-1" d="M56.34,92.69a50.89,50.89,0,0,0,4.39-8.55A64.2,64.2,0,0,0,64.3,69.82a28.93,28.93,0,0,1-.73,5.29,41.6,41.6,0,0,1-2.76,8.44A42.18,42.18,0,0,1,58.53,88" transform="translate(-2 -2)"/><path class="cls-5" d="M40,139.94H28c.28-9.86.17-14.62,0-17.14a34.72,34.72,0,0,1-.21-4.71,33.61,33.61,0,0,0,.1-5.49c-.08-.84-.18-1.38-.26-1.88a48.19,48.19,0,0,1-.55-7.79H42.21c-.36,2-.83,5-1.16,8.6-.46,5-.38,8.49-.4,12.4S40.5,133.21,40,139.94Z" transform="translate(-2 -2)"/><path class="cls-6" d="M2.73,32.6a2.2,2.2,0,0,1,2.13-1.66,3,3,0,0,1,2.26,1.39c1,1.18,1,2.28,1.46,4.62.21,1.22.53,2.43.73,3.65.3,1.86.79,4.26,1.76,9.08.67,3.27.91,3.94,2.08,9,.43,1.88,1.32,5.7,3,13.37.67,3,1.23,5.56,1.28,5.8h0a58.79,58.79,0,0,0,2.13,7.52,28.84,28.84,0,0,0,1.95,4.72c2.51,4.41,5.08,4.51,7.19,8.38,1.28,2.36,2.39,6.1.92,7.08-1.89,1.25-7.24-2.61-7.62-2.89-2-1.47-4.92-4.13-8.23-11.46A69.86,69.86,0,0,1,9.13,76.32c-1.1-5-.93-6.23-2.44-12.68C5.6,59,5.45,59.36,4.62,55.48a127.21,127.21,0,0,1-2-12.94c-.31-2.75-.49-5.07-.61-6.77" transform="translate(-2 -2)"/><path class="cls-7" d="M16.19,72A2.61,2.61,0,0,1,18,72.5a2.41,2.41,0,0,1,.67,1,16,16,0,0,1,.79,2c.4,1.59.36.8,1.46,4.52.76,2.57.67,2.57,1,3.06.88,1.42,1.55,1.26,2.44,2.84a8.65,8.65,0,0,0,1.34,2.31c.68.74.9.58,1.34,1.13.89,1.11.1,1.85.67,3.71.45,1.46,1.34,2.28.91,2.73,0,.06-.2.2-.67.22-2.08.08-4.13-2.65-5.17-4a19.39,19.39,0,0,1-1.4-2.13,26.81,26.81,0,0,1-2.89-8.24" transform="translate(-2 -2)"/><path class="cls-2" d="M19.58,81.08" transform="translate(-2 -2)"/><path class="cls-8" d="M40.74,91a10.07,10.07,0,0,1-.36,6.34c-.19.46-1.59,3.88-3.05,3.81-1.74-.09-2.77-5.1-3.65-10.21-2.19-12.67-3.87-22.39-3.59-38.86.07-4.11.22-6,.18-10.92S30,30.73,29.78,24.77c-.14-3.53-.19-4.3-.18-6.12,0-3.64.22-3.81-.07-5.26a10.68,10.68,0,0,1-.42-3.87c.12-1,.31-1,.36-2,.11-1.8-.54-2.2-.24-3.33S30.45,2,31.42,2c1.19,0,2.11,1.65,2.5,2.36C36.46,9,36.38,24.68,36.29,30" transform="translate(-2 -2)"/><path class="cls-2" d="M45.34,52.13" transform="translate(-2 -2)"/><path class="cls-1" d="M29.14,119.47" transform="translate(-2 -2)"/><path class="cls-1" d="M28,106.75,29.62,129" transform="translate(-2 -2)"/><line class="cls-1" x1="7.4" y1="72.26" x2="7.4" y2="72.26"/><path class="cls-1" d="M34.49,140.38q.1-18.18.2-36.37" transform="translate(-2 -2)"/><path class="cls-1" d="M36.38,139.94,36.61,102" transform="translate(-2 -2)"/><rect class="cls-1" x="30.27" y="102" width="1.73" height="37.94" transform="translate(60.27 239.94) rotate(180)"/><path class="cls-1" d="M52,101.54a13.48,13.48,0,0,1-4.75,3.15,12.92,12.92,0,0,1-3.62.89,34.17,34.17,0,0,0,3.94-1.21c2.44-1,3.88-2.22,6.17-4.19a31.51,31.51,0,0,0,6.62-7.06A20.66,20.66,0,0,0,63,87.54a25,25,0,0,1-4.14,7.34,25.68,25.68,0,0,1-3.13,3.22" transform="translate(-2 -2)"/><path class="cls-1" d="M43.39,106.59a28.25,28.25,0,0,0,12.34-7.06A19.16,19.16,0,0,0,58.57,96a27.26,27.26,0,0,1-6.82,6.63,25.81,25.81,0,0,1-3.65,2" transform="translate(-2 -2)"/><path class="cls-1" d="M43.55,104.69a14.6,14.6,0,0,0,6.66-2.54l2.15-1.76c2.32-1.9,2.51-2.09,2.52-2.08A15.09,15.09,0,0,1,50.49,102a17.41,17.41,0,0,1-4.34,1.71" transform="translate(-2 -2)"/><path class="cls-1" d="M54.23,96.78a12.8,12.8,0,0,1-4.67,4.83,14.16,14.16,0,0,1-4.79,1.82c0-.05,2.45-1,3-1.27,1.32-.53,1.26-.48,1.54-.62a14.13,14.13,0,0,0,2.84-2.29l1.19-1.08" transform="translate(-2 -2)"/><path class="cls-4" d="M49,23.13a2.91,2.91,0,0,1,2.38-1.88c1.23,0,2,1.39,2.43,2.15,1.13,2,1,3.87.79,6.55-.13,2.06-.08,4.13-.36,6.18-.69,5-.3,7-.91,18.52-.3,5.57-.68,12.66-1.73,21.23-.89,7.31-2,13.35-2.84,17.6,0,0-.63,3-3.66,8.59-1.39,2.61-2.3,3.76-3.83,4.14a5.07,5.07,0,0,1-4.94-1.56c-1.09-1.43-.52-3.28-.14-4.44,2.64-8.15,5.36-11.35,6.78-16.93.06-.21.42-3,1.16-8.49.86-6.48,1-8,1.1-8.7.39-3.82.31-4.59.67-10,.44-6.64.69-7.35,1.09-13.21.19-2.77.43-6.77.55-11.65" transform="translate(-2 -2)"/><path class="cls-1" d="M65.88,52.2c-.15,2.23-.37,4.54-.65,6.91-.39,3.3-.87,6.46-1.42,9.45" transform="translate(-2 -2)"/><path class="cls-1" d="M62.07,72c-.3.92-.72,2.25-1.23,3.84-1.55,4.86-2.32,7.28-2.27,7.3a48.71,48.71,0,0,0,2.52-6.84A75,75,0,0,0,62.88,69c.61-3.1.33-2.61,1.09-7.06.7-4,1.08-5.28,1.14-7.95A26.58,26.58,0,0,0,65,50s.13,1.92,0,4.51a70.42,70.42,0,0,1-1.06,7c-.17,1.08-.42,2.73-.69,4.76" transform="translate(-2 -2)"/><path class="cls-1" d="M68.2,55q-.95,7.59-1.87,15.18h0L64.62,79" transform="translate(-2 -2)"/><path class="cls-1" d="M53,23.74c-.08,6.32-.32,15.61-1,26.85-1.36,20.8-3.82,37.89-3.9,37.88s.61-5.61,1.7-17.4c.78-8.35,1.34-15.23,1.71-19.91" transform="translate(-2 -2)"/><path class="cls-1" d="M52,22.81q-.15,6.53-.41,13.17-.67,17.12-2,33.37" transform="translate(-2 -2)"/><path class="cls-1" d="M49.36,70.71c-.24,4-.58,7.46-.9,10.1-.57,4.88-1.09,7.47-1.32,8.54A43.72,43.72,0,0,1,45.7,95c-.07,0,.2-1.78,1.87-10" transform="translate(-2 -2)"/><path class="cls-1" d="M46,87.25a91.09,91.09,0,0,0,2.43-17.83c0-.92,0-1.35.08-2.5.37-11.18,1.42-20.06,1.47-20.05s-.5,6.53-2.36,27.78" transform="translate(-2 -2)"/><path class="cls-1" d="M50.9,23.74c-.41,3.8-.71,7.87-.81,12.17-.09,3.37-.05,6.6.08,9.67" transform="translate(-2 -2)"/><path class="cls-1" d="M39,105.73a15.9,15.9,0,0,0,3.41-3.23c1.78-2.27,2.59-4.66,2.44-4.72s-.61.7-2.6,4.22" transform="translate(-2 -2)"/><path class="cls-2" d="M39.53,106.44l2.76-1.57h0l2.36-2.58" transform="translate(-2 -2)"/><path class="cls-9" d="M45.46,90.26,43.81,96h0l-2.57,5.31" transform="translate(-2 -2)"/><path class="cls-1" d="M44.65,102.29a30.29,30.29,0,0,0,2.6-4.87c.13-.32.51-1.24.9-2.46a22.46,22.46,0,0,0,1.29-5.85c-.12,0-.67,1.45-2.44,7.45" transform="translate(-2 -2)"/><path class="cls-1" d="M49.2,88.54c.39-11.7,1.3-17.46,2.19-20.48l.24-.86a32.14,32.14,0,0,0,1.06-10.67" transform="translate(-2 -2)"/><path class="cls-1" d="M43.15,107a22.42,22.42,0,0,0,8.28-3.11,19.28,19.28,0,0,0,4.42-3.76,30.13,30.13,0,0,1-4,3.22A29.5,29.5,0,0,1,47.19,106" transform="translate(-2 -2)"/><path class="cls-1" d="M38.84,140.07l.24-34.28" transform="translate(-2 -2)"/><path class="cls-1" d="M40.65,138.57,40.89,106" transform="translate(-2 -2)"/><path class="cls-1" d="M37.18,102.86l2.11-2.5h0l1.3-3.3" transform="translate(-2 -2)"/><path class="cls-2" d="M44.32,67.77c-.09.89-.22,1.82-.4,2.8-.13.64-.26,1.27-.41,1.86" transform="translate(-2 -2)"/><path class="cls-1" d="M42.21,83a116.63,116.63,0,0,1,1.14-13c.15-1,.31-2.07.49-3.08" transform="translate(-2 -2)"/><path class="cls-2" d="M45,62.91l-.4,3.29" transform="translate(-2 -2)"/><path class="cls-1" d="M31.09,2.61c.1,4.36.25,9.23.48,14.54.21,4.8.32,7.2.41,7.88.68,5,2,8.61,1.46,14.53,0,.21,0,.39,0,.53s0,.26,0,.26a62,62,0,0,0,.24,12.82c1.53,25,2.44,34.16,3,36.44A24.93,24.93,0,0,1,37.26,98" transform="translate(-2 -2)"/><path class="cls-1" d="M33.85,83.53a46.49,46.49,0,0,1,.89,6.87,25.15,25.15,0,0,1,0,3.94,201.5,201.5,0,0,0-2.42-31.51c-.17-1-.32-1.91-.42-2.5" transform="translate(-2 -2)"/><path class="cls-1" d="M32.55,58.61c-.21-3-.35-6.11-.41-9.31-.11-5.77.06-11.25.41-16.4" transform="translate(-2 -2)"/><path class="cls-1" d="M36,62.62q.28,8.38,1,17.3.62,7.74,1.47,15.08" transform="translate(-2 -2)"/><path class="cls-1" d="M35.63,58.61q.07-8-.32-16.61-.3-6.15-.81-12" transform="translate(-2 -2)"/><path class="cls-1" d="M32.63,3.69q.51,7.64,1.3,15.54.3,3.06.65,6.08" transform="translate(-2 -2)"/><path class="cls-10" d="M22.13,31.39A3,3,0,0,1,24.93,29a3.45,3.45,0,0,1,2.86,1.88,4.21,4.21,0,0,1,.37,2.42c-.05,1.67.38,3.32.48,5,.2,3.08.52,6.16.73,9.24.55,7.82,1.18,9.65,2.66,24.4.54,5.42.81,8.13.88,9,.49,6.81.16,7.56,1,10.33.6,2,1.35,3.54,2.19,7.06.47,2,.81,4-.35,5.66a3.21,3.21,0,0,1-1.87,1.44c-1.61.37-3.25-1-3.86-1.47-3.16-2.58-3.61-7.22-4.55-15C24.33,79.7,24.32,81,24,77.31c-.53-6.31-.58-11-.61-12.94C23.32,58.69,23,50.24,22,38.7" transform="translate(-2 -2)"/><path class="cls-1" d="M27.33,66.56c0,3.37.19,6.94.49,10.67.26,3.32.62,6.5,1.05,9.52" transform="translate(-2 -2)"/><path class="cls-1" d="M34.74,97.28c-.64-1.76-1.25-3.67-1.79-5.73a66.65,66.65,0,0,1-1.46-7.23" transform="translate(-2 -2)"/><path class="cls-1" d="M26.05,40.64c0,3.84.1,7.86.33,12,.25,4.67.64,9.14,1.13,13.39" transform="translate(-2 -2)"/><path class="cls-1" d="M28.33,65.41q-.64-7.5-1.14-15.25-.57-9-.89-17.62" transform="translate(-2 -2)"/><path class="cls-1" d="M33.77,100.36a83.21,83.21,0,0,1-2.85-9.53c-3-12.91-2.28-23.77-2.11-23.77s.3,3.08.79,16.61" transform="translate(-2 -2)"/><path class="cls-1" d="M5.09,33.39A119.92,119.92,0,0,0,6.25,47.46C6.61,50,7,52,7.29,53.58c2.49,12.9,6.35,26.51,6.42,26.49S11.5,72.66,9.17,61.21C7.9,54.9,7.07,49.66,6.56,46.06" transform="translate(-2 -2)"/><path class="cls-1" d="M29.81,102.83a20.14,20.14,0,0,1-5.06-3.5,12.48,12.48,0,0,1-2.43-2.9,26.64,26.64,0,0,1,3.28,3.23" transform="translate(-2 -2)"/><path class="cls-1" d="M14.4,81.83a25.11,25.11,0,0,0,2.31,8.11,23.7,23.7,0,0,0,3.54,5.53s-.61-1.11-3.71-5.9" transform="translate(-2 -2)"/><path class="cls-1" d="M6.24,34.35C6.88,37.72,7.45,41.27,7.91,45q.5,4,.76,7.82" transform="translate(-2 -2)"/><path class="cls-1" d="M4.11,33c.13,3.7.4,7.61.85,11.7q.48,4.4,1.16,8.44" transform="translate(-2 -2)"/><path class="cls-1" d="M5.81,35l1.1,9.72h0l1.71,7.45" transform="translate(-2 -2)"/><path class="cls-1" d="M8.86,49.55A39.8,39.8,0,0,0,10,54a41.74,41.74,0,0,0,1.65,4.3" transform="translate(-2 -2)"/><path class="cls-1" d="M16,83.81A15,15,0,0,0,17,86.93a16.21,16.21,0,0,0,1.64,3" transform="translate(-2 -2)"/><path class="cls-1" d="M12.69,62.49a37.72,37.72,0,0,0,.73,4.78,37.32,37.32,0,0,0,1.89,6" transform="translate(-2 -2)"/><path class="cls-1" d="M16.59,93a14.27,14.27,0,0,0,3.72,5.64,13,13,0,0,0,4.2,2.79c.06-.07-.71-.75-4.26-3.38" transform="translate(-2 -2)"/><path class="cls-1" d="M20.29,84.46a4.64,4.64,0,0,0,1.62,1.86,5.29,5.29,0,0,0,1.38.66" transform="translate(-2 -2)"/><path class="cls-1" d="M17.77,74.15c.22,1.11.48,2.29.81,3.51.26,1,.53,1.85.81,2.72" transform="translate(-2 -2)"/></svg>