<svg xmlns="http://www.w3.org/2000/svg" viewBox="0 0 70 70"><defs><style>.cls-1{fill:#eddbb0;}.cls-2{fill:#c9c3af;}.cls-3{fill:#f8ecbf;}</style></defs><g id="Layer_12" data-name="Layer 12"><path class="cls-1" d="M13.48,36.51c-4.48,0-2,2.7-4.21,3.21a19.15,19.15,0,0,1-3,.64c-1.1.16-7.33-.14-4.72,1,3.48,1.46,8.44,1.84,12.3,1.56s6.63-1.71,9.73-.86c6.2,1.71,9.37-.61,9.37-.61a40.47,40.47,0,0,0,5.2,1.11c1.09.06,5.12-.49,5.12-.49a12.65,12.65,0,0,0,4.25.55,10.24,10.24,0,0,0,4.71-1.71c1-.76,6.88,3.1,10.64,1.51,1.25-.53,4.18-.66,4-3.27-.51-10.47-15.77-.21-9.9-5.49,3.67-3.31-1.61-4.86-4.63-5-1.81-.1-2.11,1.18-2.46.83a2,2,0,0,0-1.72-.75A5.75,5.75,0,0,0,44.81,25c-5-2.34-14.08-3.14-17.47,6.63-.34,1-2.18-.05-2.93.12s-1.7,1.18-2.65,1.4-2-.33-3-.18C16.12,33.3,14.77,36.51,13.48,36.51Z"/></g><g id="Layer_13" data-name="Layer 13"><path class="cls-2" d="M66.68,40.19s-1.77,6-14.05.5c0,0-5.38,4-9.17,1.32,0,0-6.5,1.9-10.46-.46,0,0-7.65,3-10.33.29-.31-.32-1.11,0-1.45,0-1-.08-1.84.13-4.78.71A30.25,30.25,0,0,1,7.82,43C4.19,42.54,1,41.33,1,41.13c-.08-1.49,4,.68,9.58,1,4.4.23,9.86-1.45,11.72-1.8,1.6-.29,3.11.95,4.49,1,2.78.16,3.55-1.82,5.07-2.54,0,0,8,2.43,10.18,1.41s2.25-1.34,3.5-3.28c.87-1.36,1.61,2.7,2.58,2.86a7.59,7.59,0,0,0,5.66-1.57S62,43.85,66.68,40.19Z"/><path class="cls-2" d="M21,39.61s1.1,1.4,4,.56S22.49,40.09,21,39.61Z"/><path class="cls-2" d="M43.75,36.3a6.21,6.21,0,0,0,5.67-.48C52.09,34,45.49,37.45,43.75,36.3Z"/><path class="cls-2" d="M29.89,38.24s-.05,1.95,5.66-.05S32.15,39.22,29.89,38.24Z"/></g><g id="Layer_14" data-name="Layer 14"><path class="cls-3" d="M1.75,40.44s6.08-.2,7.9-1.06c.58-.27.68-1.75,1.24-2.19a5,5,0,0,1,3.19-.73h0a11.86,11.86,0,0,1,4.06-3.54c1.05-.45,2.78.43,3.36.32.42-.08,1.88-1.77,3.06-2s2.11.78,2.44.6c.49-.26.33-1.3.69-1.92,1.09-1.85,2.91-4.54,4-5,2.33-1,5.61-2.71,9.65-1.42,2,.63,6.86,1.63,6.73,5.15,0,0,1.53.05,1.94.93.14.3.23-1.06,2-1.07,2.63,0,6.76,1,6.28,3.49-.16.86-1.15,1.75-2.6,3,0,0,9-2.08,10.38.76s1.4,3.78.46,4.57c0,0-.56-3.73-1.65-4.49-1.83-1.26-8.4-1-10.64-.29,0,0,4.29-7.81-3.83-5.22a3,3,0,0,0-2.52-.79c-1.61.2-10.54-12.37-19.62,2.5,0,0-.07,1-3.1,1.2,0,0-2.93,0-3.67,1,0,0-4.53-.5-6.76,2.95,0,0-4.3-.34-4.57,2.46-.06.65-2.12.61-3.34.83S5.08,41.13,4,41A17.87,17.87,0,0,1,1.75,40.44Z"/></g></svg>