<svg xmlns="http://www.w3.org/2000/svg" viewBox="0 0 70 70"><defs><style>.cls-1,.cls-4{fill:#eddbb0;}.cls-2{fill:#c9c3af;}.cls-3,.cls-5{fill:#f8ecbf;}.cls-4{stroke:#eddbb0;}.cls-4,.cls-5{stroke-miterlimit:10;}.cls-5{stroke:#f8ecbf;}</style></defs><g id="Layer_9" data-name="Layer 9"><path class="cls-1" d="M25.19,28.65S20.74,7.87,43.8,18.47l1,2.06s5.87-.14,5,4.86c0,0,2.4,0,3.07,1.24a5.39,5.39,0,0,1,1.4-3.12c2.16-2,6.1-3.17,7.32,1.64.16.63,0,1.62.14,2.49,0,0,3.73-.43,3.79,1.26,0,.42,1.22.35,1.77.84,1.68,1.49,3.8,4.33-1.59,8.64,0,0-4.47,1.35-6.82-1.71,0,0-.68,9.68-19.52,6.34,0,0-1,4.63-9.57.64a12.25,12.25,0,0,1-11-1.25s-16.71.87-15.94-6.73,9-8.69,9-8.69,2.43-5.18,6-5.07c1.25,0,3.75,0,5.22,1.7C24.1,24.78,24.08,27.43,25.19,28.65Z"/></g><g id="Layer_10" data-name="Layer 10"><path class="cls-2" d="M2.84,36S2.4,40.47,9,41.49l4.73.92,5.48,0s5,4.72,10.7,1.12c0,0,6.63,4.54,9.41-.55,0,0,15.43,5.35,19.62-6.25,0,0,3.18,4.35,6.72,1.7,0,0-5.53-1.41-6.66-3-.56-.78-1.83,3.27-5.43,5.67a15.14,15.14,0,0,1-14.39.76,4.8,4.8,0,0,1-2.86,2.42c-2.11.54-5.32-.4-6.44-2.48a9,9,0,0,1-5,2,7,7,0,0,1-5.4-2.86s-9.56.15-10.65-.5-6.45-2.42-6-4.34"/></g><g id="Layer_12" data-name="Layer 12"><path class="cls-2" d="M16.89,39.27a6.43,6.43,0,0,0,4.75,2.21c1.64,0,.1-.15-1.65-.75A19.47,19.47,0,0,1,16.89,39.27Z"/><path class="cls-2" d="M26.91,41.48a5.44,5.44,0,0,0,5.89-.63C36,38.56,27.84,42.28,26.91,41.48Z"/><path class="cls-2" d="M60.67,33.63a3.84,3.84,0,0,1-2.3,2.5,12.25,12.25,0,0,1-1.69.36c-2.32.61-.42.13,1.5-.89A12.93,12.93,0,0,0,60.67,33.63Z"/></g><g id="Layer_11" data-name="Layer 11"><path class="cls-3" d="M2.87,37s-1.23-9,9-10h0A8.85,8.85,0,0,1,14,23.59a5.79,5.79,0,0,1,4.88-2,6.3,6.3,0,0,1,4.21,1.88c1,1.09.94,2.91,1.94,5.07a18.92,18.92,0,0,1-.05-7,9,9,0,0,1,3.18-4.87,11.33,11.33,0,0,1,6.05-1.22c2.65.18,5.5.26,7.66,1.38,1.6.84,2.93,2.59,2.93,3.62,0,0,6.45-.09,4.93,5,0,0,2.79-.9,3.13.81a4.5,4.5,0,0,1,.76-2.46A5.65,5.65,0,0,1,58,21.69s4.32-.52,3.76,5.77a2.82,2.82,0,0,1,4,1.57,2.63,2.63,0,0,1,2.15.63c1.78,1.56,3.51,5.07-2.2,8.51,0,0,4.81-6.18-.44-7.8,0,0-.93-1.91-4-2.09,0,0-1.87-6.94-5.23-4.86-.77.48-2.14,2.91-3.1,4.49,0,0-3.54-2.7-4.18-.91,0,0-.8-6.07-4.66-5.57a14.41,14.41,0,0,0-4.83-4C36,16,30.15,16,27.26,19.89c-1.31,1.79-.87,7.67-1.46,11.48,0,0-4-5-7.24-6.23-2.33-.86-5.53,1.56-6.25,3C12.31,28.13,5.29,28.05,2.87,37Z"/></g><g id="Layer_13" data-name="Layer 13"><path class="cls-4" d="M61.36,41.49s-2.82-.14-3.19,1.09,2.72.94,4.7.65S63.29,41.37,61.36,41.49Z"/><path class="cls-5" d="M7.92,20.49a2,2,0,0,0-2.26,1.63C5.4,24,7.58,23.54,9,23.1S9.28,20.32,7.92,20.49Z"/></g></svg>