<svg xmlns="http://www.w3.org/2000/svg" viewBox="0 0 70 70"><defs><style>.cls-1{fill:#eddbb0;stroke:#eddbb0;}.cls-1,.cls-2,.cls-3,.cls-5,.cls-6{stroke-miterlimit:10;}.cls-2{fill:#f8ecbf;}.cls-2,.cls-6{stroke:#f8ecbf;}.cls-3,.cls-4{fill:#c9c3af;}.cls-3,.cls-5{stroke:#c9c3af;stroke-width:0.3px;}.cls-5,.cls-6{fill:none;}.cls-6{stroke-width:0.8px;}</style></defs><g id="Layer_2" data-name="Layer 2"><path class="cls-1" d="M43.92,25.06S41.15,17.52,35.09,18c-2.76.2-7.18,1.53-10.6,6.88,0,0-7.91-.38-9.78,6.5,0,0-18,2.8-8.76,9.42,0,0,.73,10.69,18.7,6.84,0,0,5.59,2.4,15.43-.53,0,0,5,1.74,14.64.08,3-.53,11-2.63,11.78-3.94,1.7-2.88-3.59-7.7-10.14-8.28,0,0,0-5.18-1.21-7.67S47.51,25,44,25.16"/><path class="cls-2" d="M52.92,17.61s-10.7-.6-4.79,3.64c2.21,1.59,10.67,2.18,11.7.81C61.56,19.78,57.78,16.2,52.92,17.61Z"/><path class="cls-1" d="M16.85,52.52s-10.7-.6-4.79,3.65c2.21,1.59,10.67,2.17,11.7.81C25.49,54.7,21.71,51.11,16.85,52.52Z"/></g><g id="Layer_6" data-name="Layer 6"><path class="cls-1" d="M46.22,19.42s2,4,7.77,3.74c.34,0,4.08-.21,5.32-.76s.72-1.82.95-2c.46-.37-3,1.9-6.2,1.89a9.25,9.25,0,0,1-3.75-.21C48.66,21.66,46.21,19.33,46.22,19.42Z"/></g><g id="Layer_7" data-name="Layer 7"><path class="cls-3" d="M11,54.78c-3.1-1,3.37,6.35,12.06,3.09a2.14,2.14,0,0,0,1.43-1.73c.4-.82-3.16.93-7.28.74C13.82,56.73,11.91,55.07,11,54.78Z"/></g><g id="Layer_3" data-name="Layer 3"><path class="cls-4" d="M5.55,41.22a25,25,0,0,0,8.66,5.07c3.59,1.08,8,.21,10-.36a5.45,5.45,0,0,0,3.39,2.61c4.11,1,10.34,1.4,12.68,0,0,0,5.14-.29,10.6,0a28.09,28.09,0,0,0,9.4-1.15,16.42,16.42,0,0,0,5.57-3c3-2.21-.37,0-6,1.09-3,.59-6-.12-9.16.23-4.75.53-9.23-2.81-10.42-2.61,0,0-13.18,4.2-15.41-.49a19.64,19.64,0,0,1-8.21,2.07C12.21,44.69,7.14,42.7,5.55,41.22Z"/></g><g id="Layer_8" data-name="Layer 8"><path class="cls-5" d="M31.41,48.94a49.87,49.87,0,0,1-6.72-.84A26.24,26.24,0,0,1,14,48.6c-2.28-.48-5.3-1.3-6.41-3.27"/></g><g id="Layer_4" data-name="Layer 4"><path class="cls-4" d="M38.41,37.72a9,9,0,0,0,5.52,1.52,15.18,15.18,0,0,0,4-.7c3-.93.21-.27-3.77-.11A20.81,20.81,0,0,1,38.41,37.72Z"/><path class="cls-4" d="M22.83,30.94s7-3.66,9.46-3.66a12,12,0,0,1,6.12,1.94,12,12,0,0,0-5.73-.59A68.4,68.4,0,0,0,22.83,30.94Z"/><path class="cls-4" d="M41.3,35.82s-2.54,2.66-5.11,2.46S39.23,36.81,41.3,35.82Z"/></g><g id="Layer_5" data-name="Layer 5"><path class="cls-2" d="M6.21,43.19S2.47,39.41,3,37c.43-1.9,3.51-3.92,11.36-5.68a10.89,10.89,0,0,1,10.27-6.84s10-16.42,19.13-.52c1.32,2.3-2.36-1.34-7.53-3.36C31.26,18.62,26,26.12,26,26.12S18,27.21,15.61,32.62c-.91,2-2.24,1.64-4.31,2C7.43,35.16,4,37.83,6.21,43.19Z"/><path class="cls-6" d="M43.78,24.71S53.88,22.76,55.56,27c.67,1.67,1.12,7.42,1.12,7.42s6.5,1.94,8.14,3.65c.4.41,1.6,1.14,2,2.17a7.21,7.21,0,0,1,0,3.32"/></g></svg>