<svg id="Layer_1" data-name="Layer 1" xmlns="http://www.w3.org/2000/svg" viewBox="0 0 9600 272.23"><defs><style>.cls-1{fill:#f9bf83;}.cls-2{fill:#575756;stroke:#4d4d4d;stroke-miterlimit:10;stroke-width:2px;}</style></defs><path class="cls-1" d="M1199.44,1080.23H0V929.74a893.79,893.79,0,0,1,100.94-21.5c52.21-7.94,62.75-4.56,70.41-1.13,21.22,9.51,31.83,24.57,54.21,22.63,16.09-1.39,22.21-10.19,38.63-18.1,18.05-8.71,27.3-6.1,72.9-2.27,75.3,6.33,76.05,1.41,115.89,9,30.24,5.8,29.41,8.56,50.47,11.32,47.84,6.26,84-3.79,96-6.79,88.34-22.2,262.6-13.29,456.09-3.39,31.85,1.62,81.9,4.6,143.94,10.18Z" transform="translate(0 -808.23)"/><path class="cls-1" d="M2397,1080.39H1197v-150a643,643,0,0,1,101.15-22c117.76-15.63,220.62,5.2,281.18,4.17a407.72,407.72,0,0,1,46.2,2.22c7,.7,14.61,1.84,24.79,3.79,27.72,5.31,48.67,10.82,50.49,11.32,57.89,15.73,189.35-36.82,189.35-36.82,69.6-27.82,68.23,1.08,362.91,26.63,61.84,5.36,112.2,8.45,144,10.19Z" transform="translate(0 -808.23)"/><rect class="cls-2" x="3141.39" y="799.08" height="155.63" transform="translate(1162.3 2661.04) rotate(-68.24)"/><path class="cls-1" d="M3593.79,1080.36H2393.73V929.87a821.59,821.59,0,0,1,101-21.49c43.32-6.38,83.39-12,135.88-6.27,38.69,4.23,31.66,8.89,64.13,11.14,42.21,2.93,98.07-1.89,127.42,1.51,12.57,1.46,24.8,3.8,24.8,3.8,8.76,1.68,14.91,3.1,19.74,4.34,10.6,2.73,13.24,3.7,17.58,4.71a80.13,80.13,0,0,0,32.48-.6c24.05-5.46,42.33-30.61,46.75-36.21,31.61-40,127.2-59.39,234.41-45.26,113,14.89,126,52.09,251.88,74.15a696.31,696.31,0,0,0,144,10.18Z" transform="translate(0 -808.23)"/><path class="cls-1" d="M4794.14,1080.23H3594.08V929.74a823.5,823.5,0,0,1,101-21.5c43.31-6.37,83.39-12,135.87-6.26,38.69,4.22,31.66,8.89,64.13,11.14,42.21,2.93,98.07-1.89,127.42,1.51,12.57,1.46,24.8,3.8,24.8,3.8,8.76,1.68,14.91,3.1,19.74,4.34,10.6,2.73,13.24,3.7,17.59,4.71,7.57-.08,18.83-.24,32.47-.61,70.81-1.9,122.32-7.1,144.58-9.14,87.13-8,163.57-8,189.52-7.92,78.52.19,136.32,5.13,198.94,9.75,34.74,2.56,84.21,6,144.63,9.67Z" transform="translate(0 -808.23)"/><path class="cls-1" d="M5988,1080.23H4787.91l.63-151c22.9-13.86,57.37-31.32,100.37-39.85,56-11.1,64.79,3.36,135.88-7,34.67-5,58.68-12.59,106.7-27.73,97.79-30.82,102.64-45.63,146.5-46.45,22.47-.43,51.55,7.67,109.72,23.85,13.06,3.63,47.56,14.56,116.58,36.41,34.32,10.87,65.38,20.79,108.16,22.75,14.66.67,25.05-.17,32.58-.14,85.14.23,171.32,7.38,198.94,10.82a1299.58,1299.58,0,0,1,144,26.29Z" transform="translate(0 -808.23)"/><path class="cls-1" d="M7188.32,1080.3H5988.88V929.81a894.71,894.71,0,0,1,100.94-21.5c52.22-7.94,62.75-4.56,70.41-1.13,21.22,9.51,31.84,24.57,54.21,22.63,16.09-1.4,22.21-10.19,38.63-18.11,18.05-8.7,27.3-6.09,72.9-2.26,75.3,6.33,76.05,1.41,115.9,9,30.23,5.8,29.41,8.56,50.47,11.32,47.83,6.26,84-3.79,95.95-6.79,88.35-22.2,262.61-13.29,456.1-3.4,31.84,1.63,81.89,4.61,143.93,10.19Z" transform="translate(0 -808.23)"/><path class="cls-1" d="M8385.89,1080.46H7185.83v-150a640.91,640.91,0,0,1,101.15-22c117.76-15.63,220.63,5.2,281.18,4.17a409.18,409.18,0,0,1,46.2,2.21c7,.71,14.61,1.85,24.8,3.8,27.71,5.31,48.66,10.82,50.49,11.31,57.89,15.74,189.34-36.81,189.34-36.81,69.6-27.82,68.24,1.08,362.92,26.63,61.84,5.36,112.19,8.45,144,10.18Z" transform="translate(0 -808.23)"/><path class="cls-1" d="M9600,1080.43H8382.62V929.94a845.3,845.3,0,0,1,102.45-21.5c43.94-6.37,84.59-12,137.84-6.26,39.24,4.22,32.11,8.88,65,11.14,42.82,2.93,99.48-1.89,129.26,1.51,12.74,1.46,25.16,3.8,25.16,3.8,8.88,1.68,15.12,3.1,20,4.34,10.75,2.73,13.43,3.7,17.84,4.71a82.3,82.3,0,0,0,32.94-.61c24.4-5.46,42.94-30.6,47.43-36.2,32.07-40,129-59.39,237.79-45.26,114.6,14.89,127.81,52.09,255.51,74.15A716.48,716.48,0,0,0,9600,929.94Z" transform="translate(0 -808.23)"/></svg>