<svg id="Layer_1" data-name="Layer 1" xmlns="http://www.w3.org/2000/svg" viewBox="0 0 15407.9 712.52"><defs><style>.cls-1,.cls-5{fill:#6c514a;}.cls-2{fill:#9c754d;}.cls-3{fill:#9b764d;}.cls-4{fill:#f5c33b;}.cls-5{stroke:#644b45;stroke-miterlimit:10;}</style></defs><path class="cls-1" d="M15413,417" transform="translate(-0.1 -449.95)"/><path class="cls-2" d="M892.32,1162H1926.1V557.44a165.24,165.24,0,0,0-34.89,14.78c-23.8,13.59-26.2,23.5-48.31,33.14a116.56,116.56,0,0,1-41.86,9.85c-24.52,1-31.18-6.91-44-2.69-14.27,4.7-17.71,18.37-27.91,41.2-21.93,49.13-29.79,55.94-33.28,60-9.65,11.25-22.63,26.37-44.23,33.14-37.45,11.73-58.09-15.06-105-3.58a123.12,123.12,0,0,0-35.88,14.81c-16.43,10.14-24.83,22-43.83,36.11-12.84,9.52-26.67,20.31-43.74,25.21-37.69,10.79-52.72-17.23-91.9-13.44-45,4.36-86.53,47.29-102.41,77.92-4.66,9-13.39,29.05-34.41,51.23-8.39,8.86-12.59,13.29-18.19,16.84-34.33,21.75-74.36-9.55-137.12-3.58-31.78,3-30.61,11.91-79.58,25.08a450.77,450.77,0,0,1-120.38,15.22Q865.75,1075.35,892.32,1162Z" transform="translate(-0.1 -449.95)"/><path class="cls-2" d="M962.84,1161.65H.1V450a138.07,138.07,0,0,1,32.49,17.4c22.17,16,24.4,27.66,45,39a91.08,91.08,0,0,0,39,11.6c22.83,1.21,29-8.14,41-3.17,13.29,5.54,16.5,21.63,26,48.5,10.35,29.29,19.67,55.7,31,70.65,27.86,36.79,73.41,11.65,139,34.79,58.59,20.69,44.92,48.79,115,89.62,88.66,51.69,135.46,21.17,181,75.92,26.86,32.32,17.78,51.67,49,80.13,26.1,23.81,56.6,32.3,113,39a1049.89,1049.89,0,0,0,201,4.22Z" transform="translate(-0.1 -449.95)"/><path class="cls-3" d="M2833.14,1162H3852.66V881.43c-11.32,24.73-23,31.93-32,33.66-20.51,3.95-40.32-17.36-74.51-25.93-32.46-8.14-36.8,1.07-58.61-9.43-5.46-2.62-21.86-11.22-52.66-53-42.12-57.19-31.56-68.42-52.92-81.43-22.36-13.62-50.29-16.86-103.53-3.59a14.78,14.78,0,0,0-2.86.72c-13.62,6-4.77,42.19-15.53,61.91-12.71,23.28-50.6,19.61-103.36,13.79-51.63-5.7-61.17-12.3-75.65-13.71a74.45,74.45,0,0,0-15,.22c-51.39,4.74-154.92,46.28-236.17,15-17.76-6.84-29.39-15.18-56.63-21.21-30.71-6.81-42.18-2-64.57-7.08-18.14-4.08-43.74-14.67-72.52-44.77q-27.7,120.72-55.4,241.45Q2806.93,1075,2833.14,1162Z" transform="translate(-0.1 -449.95)"/><path class="cls-3" d="M2895.67,1162H1918V544c9.4-38.54,33.81-64.49,53.65-65.65,11.84-.7,35.19,6.82,38.72,8.61,3,1.54,4.3,2.44,8.17,4.2a86.16,86.16,0,0,0,30.82,7.75c22.84,1.24,29-8.39,41-3.26,13.29,5.7,16.5,22.28,26,50,10.34,30.17,19.67,57.37,31,72.77,27.86,37.9,73.41,12,139,35.85,58.6,21.31,44.92,50.26,115,92.32,105,63.05,155.69,98.55,181,78.2,25.66-20.66,4-69.6,35.26-98.13,19.74-18,39.29-8.51,84-10.49,79.56-3.53,98.92-37.18,132-30.31,34.45,7.17,78.78,57.34,111.7,266Q2920.43,1056.92,2895.67,1162Z" transform="translate(-0.1 -449.95)"/><path class="cls-4" d="M2635.94,117.35" transform="translate(-0.1 -449.95)"/><path class="cls-3" d="M4748.48,1162h1029.7V710.6c-19.69-2.12-46.86-1.35-66.6,16.79-29.55,27.14-21.58,71.31-46.34,82.89-14.39,6.74-29.08-2.43-50.36-15.85-68.35-43.11-62.42-83-97.69-89-29.84-5.07-45.21,21.55-114.5,21.76l-4,0a1232.62,1232.62,0,0,0-158.45,22.14c-100.54,20.85-133.67,41-188.34,20.73-30.94-11.48-64.24-34.15-92.67-53.64-116.9-80.17-130.49-116.17-157.12-112.15-34.95,5.28-77.23,77.23-106.72,377.77Z" transform="translate(-0.1 -449.95)"/><path class="cls-3" d="M4818.94,1160.9l-966.76,1.1V882.51c43.14-128.4,85.26-162.7,117.36-168.06,14.69-2.45,31.07.52,50.73-12.84,37.25-25.33,27.3-69.29,54.24-85,38.93-22.75,81.45,56.39,138.24,35.89,25.53-9.21,25.47-28.28,61.13-40.72,21.61-7.54,35.79-5.48,69.62-4.67,82.33,2,74.19-8.4,100.45-2.34,42.62,9.85,74,39.47,127.3,89.87,40.1,37.89,48.11,53.82,65.65,51.35,27.46-3.86,29.2-45.91,73.59-92.2,16.67-17.37,57.6-60,92.5-49,40.35,12.77,53.76,91.41,63.65,149.39,7.49,43.91,13.92,111.6,1.53,196.33Z" transform="translate(-0.1 -449.95)"/><path class="cls-3" d="M6680.14,1162l1024.86-.49V450.45c-13.69,11.22-28.53,27.24-38,49.8-7.15,17-5.81,24.87-13.91,35.11-15.74,19.88-41.23,11.72-62,21.58-32,15.16-44.75,44.42-74.05,97.12-55.33,99.53-83,149.29-110.06,158.28-45.71,15.17-60-39.84-139.09-49.16-82.92-9.79-94,47.58-151.09,26.37-54.71-20.31-115.5-99.3-157.09-105.51a72.93,72.93,0,0,0-15.88-.52c-22.05,3.55-35.36,25.64-98.19,40.09-72.62,16.7-95.17-2.7-128.07,13.19C6680.6,754.63,6640.77,812,6627.36,985Q6653.75,1073.49,6680.14,1162Z" transform="translate(-0.1 -449.95)"/><path class="cls-3" d="M6747.65,1160.38l-968.65.07v-452c50.16,23.31,87.67,23.31,112.53,19.09,42-7.12,108.49-36.89,145.52-44.22,45.47-9,40.46,0,88.22-7.92,79.32-13.11,90.33-37.4,176.42-57.7,56.09-13.23,86.55-20.41,125.31-9.05,51.34,15,50.43,43.05,110.26,71.28,38,17.91,75,21.37,149.13,28.29,84.71,7.9,133,2.54,136.33,20.36,2.11,11.36-13.64,17.08-27,37.44-33.56,51.16,17.8,123.49,1.54,190.34Z" transform="translate(-0.1 -449.95)"/><path class="cls-5" d="M7727.5,457" transform="translate(-0.1 -449.95)"/><path class="cls-2" d="M8596.7,1162.47H9630.48V557.91a165.24,165.24,0,0,0-34.89,14.78c-23.8,13.6-26.2,23.5-48.3,33.14a116.64,116.64,0,0,1-41.87,9.85c-24.52,1-31.18-6.91-44-2.69-14.28,4.7-17.72,18.37-27.92,41.2-21.93,49.13-29.78,55.95-33.27,60-9.66,11.25-22.64,26.38-44.24,33.14-37.45,11.73-58.09-15.06-105-3.58a123.23,123.23,0,0,0-35.88,14.81c-16.43,10.14-24.83,22-43.83,36.11-12.84,9.52-26.66,20.31-43.74,25.21-37.68,10.79-52.72-17.23-91.9-13.44-45,4.36-86.53,47.29-102.41,77.92-4.66,9-13.39,29-34.41,51.24-8.39,8.86-12.59,13.29-18.19,16.83-34.33,21.75-74.36-9.55-137.12-3.58-31.78,3-30.61,11.91-79.58,25.08a450.77,450.77,0,0,1-120.38,15.22Q8570.14,1075.82,8596.7,1162.47Z" transform="translate(-0.1 -449.95)"/><path class="cls-2" d="M8667.22,1162.12H7704.48V450.42a138.07,138.07,0,0,1,32.49,17.4c22.17,16,24.41,27.66,45,39a90.79,90.79,0,0,0,39,11.6c22.84,1.21,29-8.14,41-3.17,13.29,5.54,16.5,21.63,26,48.51,10.35,29.29,19.68,55.69,31,70.64,27.86,36.79,73.41,11.65,139,34.79,58.6,20.69,44.92,48.79,115,89.63,88.65,51.68,135.45,21.16,180.95,75.91,26.86,32.33,17.78,51.67,49,80.13,26.1,23.81,56.61,32.3,113,39a1050,1050,0,0,0,200.95,4.21Z" transform="translate(-0.1 -449.95)"/><path class="cls-3" d="M10537.52,1162.47H11557V881.9c-11.32,24.73-23.05,31.93-32,33.66-20.51,4-40.31-17.35-74.51-25.93-32.46-8.14-36.8,1.07-58.61-9.42-5.46-2.63-21.86-11.23-52.66-53-42.12-57.18-31.56-68.42-52.91-81.43-22.37-13.62-50.3-16.86-103.54-3.59a15.55,15.55,0,0,0-2.86.72c-13.62,6-4.77,42.19-15.53,61.91-12.71,23.28-50.6,19.61-103.36,13.79-51.62-5.7-61.16-12.3-75.65-13.71a74.45,74.45,0,0,0-15,.22c-51.39,4.75-154.92,46.29-236.17,15-17.76-6.84-29.39-15.18-56.62-21.21-30.72-6.81-42.19-2-64.58-7.07-18.14-4.09-43.74-14.68-72.52-44.78q-27.71,120.72-55.4,241.45Q10511.33,1075.49,10537.52,1162.47Z" transform="translate(-0.1 -449.95)"/><path class="cls-3" d="M10600.06,1162.47H9622.38v-618c9.4-38.54,33.81-64.48,53.65-65.65,11.84-.7,35.19,6.82,38.72,8.61,3,1.54,4.3,2.44,8.18,4.2a86,86,0,0,0,30.81,7.75c22.84,1.25,29-8.38,41-3.26,13.3,5.7,16.5,22.28,26,50,10.34,30.18,19.67,57.38,31,72.78,27.86,37.89,73.41,12,139,35.84,58.6,21.31,44.93,50.26,115,92.32,105,63.05,155.69,98.55,181,78.2,25.66-20.65,3.95-69.6,35.27-98.13,19.73-18,39.29-8.51,84-10.49,79.56-3.53,98.92-37.18,132-30.31,34.45,7.17,78.78,57.34,111.71,266Q10624.8,1057.39,10600.06,1162.47Z" transform="translate(-0.1 -449.95)"/><path class="cls-3" d="M12452.86,1162.47h1029.71V711.07c-19.7-2.12-46.87-1.35-66.61,16.79-29.54,27.15-21.58,71.31-46.33,82.89-14.4,6.74-29.09-2.42-50.36-15.84-68.35-43.12-62.43-83-97.7-89-29.83-5.07-45.2,21.55-114.5,21.76l-4,0a1232.16,1232.16,0,0,0-158.44,22.14c-100.55,20.85-133.68,41-188.35,20.73-30.93-11.48-64.24-34.15-92.66-53.64-116.9-80.17-130.5-116.17-157.13-112.14-35,5.27-77.23,77.22-106.72,377.76Z" transform="translate(-0.1 -449.95)"/><path class="cls-3" d="M12523.32,1161.37l-966.75,1.1V883c43.13-128.4,85.26-162.7,117.35-168.06,14.69-2.45,31.08.52,50.73-12.84,37.26-25.33,27.3-69.29,54.24-85,38.93-22.75,81.45,56.4,138.24,35.89,25.53-9.21,25.47-28.28,61.13-40.72,21.61-7.54,35.79-5.48,69.62-4.67,82.33,2,74.19-8.4,100.45-2.33,42.62,9.84,74,39.46,127.31,89.86,40.1,37.89,48.1,53.82,65.64,51.35,27.46-3.86,29.2-45.91,73.59-92.2,16.67-17.37,57.6-60.05,92.5-49,40.35,12.76,53.76,91.4,63.65,149.38,7.49,43.91,13.92,111.6,1.53,196.33Z" transform="translate(-0.1 -449.95)"/><path class="cls-3" d="M14383.14,1162.22l1024.86-.49V450.67c-13.68,11.23-28.53,27.24-38,49.81-7.15,17-5.81,24.86-13.91,35.1-15.74,19.89-41.23,11.73-62,21.58-32,15.16-44.75,44.42-74,97.13-55.33,99.52-83,149.29-110.06,158.27-45.71,15.17-60-39.83-139.09-49.16-82.92-9.79-94,47.58-151.09,26.38-54.71-20.32-115.5-99.3-157.09-105.52a72.93,72.93,0,0,0-15.88-.52c-22,3.55-35.36,25.64-98.19,40.09-72.62,16.7-95.17-2.7-128.07,13.19-36.94,17.84-76.77,75.24-90.18,248.18Q14356.75,1073.72,14383.14,1162.22Z" transform="translate(-0.1 -449.95)"/><path class="cls-3" d="M14450.65,1160.6l-968.65.07v-452c50.16,23.31,87.67,23.31,112.54,19.1,42-7.13,108.49-36.89,145.51-44.22,45.47-9,40.46,0,88.22-7.92,79.32-13.12,90.33-37.41,176.42-57.71,56.09-13.23,86.56-20.41,125.31-9,51.34,15,50.43,43,110.27,71.28,37.95,17.91,75,21.37,149.12,28.29,84.71,7.91,133,2.54,136.33,20.37,2.11,11.35-13.64,17.07-27,37.43-33.56,51.16,17.8,123.49,1.54,190.34Z" transform="translate(-0.1 -449.95)"/></svg>