<svg id="Layer_1" data-name="Layer 1" xmlns="http://www.w3.org/2000/svg" viewBox="0 0 15403.74 618.93"><defs><style>.cls-1{fill:#6c514a;}</style></defs><path class="cls-1" d="M1970.29,947.32H0L.5,395c24.74-16.11,41.51-29.22,53.72-40.1,7.85-7,22.11-19.72,40.15-19a17,17,0,0,1,2.53.31c19.81,3.81,20.71,27.79,46.15,47.32,3.74,2.87,13,9.49,55.37,18.68,70,15.18,73.09,3.27,95.75,16.18,38.5,21.94,36.65,60.34,65.76,63.51,23.49,2.55,32.39-21.63,58.83-19.93,27.7,1.79,46.11,30.15,51.91,37.36C524,565.61,769.9,420.82,936.73,403.45c276.61-28.81,468.63,280.26,657.09,218.53,70.47-23.09,115.28-37.77,149.87-85.89,25.94-36.08,40.47-83.09,81.48-95.17,9.83-2.89,17.77-2.41,34-4.45,6.85-.86,14.18-2.13,22.34-3.67a387.91,387.91,0,0,0,43.83-11c28.12,25.78,41.39,48.26,48.17,62.56,40.06,84.49-26.1,136.91,24.07,230.23,7.77,14.45,11.62,16.83,16.19,23.15a83.54,83.54,0,0,1,6.27,10.76C2023.88,756.51,2005.74,837.43,1970.29,947.32Z" transform="translate(0 -328.4)"/><path class="cls-1" d="M3868.38,947.32h-1943V417.89c26.91,7.19,46.77,4.84,59.71,1.53,42.83-10.94,93.55-53.83,120.41-59.9,28.85-6.51,22.77,4.52,89.3,0,39.18-2.66,53.48-7.31,65.22,4.7,20.05,20.5,3.51,59.79,22.08,77.52,9.22,8.8,26.47,11.7,60.21-4.7a363.36,363.36,0,0,0,55.84,39.77c117.32,67.57,211.73,28.75,332.48,44.8,28,3.72,48,9,64.78,15.59,51.48,20.14,64.92,38.15,86.27,44.94C2960.46,607.21,3000.63,407.92,3130,383c79.41-15.28,142.82,44.66,244.83,0,20.25-8.86,16.84-8.29,29.46-11.58,94.36-24.56,139,76.27,246.49,75.05,28.27-.32,38.54-7.46,57.37-9.72h0a252.73,252.73,0,0,0,27.92.32c16.74-1,46.71,34.77,76.66,61.87a398.83,398.83,0,0,0,39,31Z" transform="translate(0 -328.4)"/><path class="cls-1" d="M5790.54,947.32H3819.06V542a49.41,49.41,0,0,1,0-11.06c1.67-14.43,9.85-27.24,15.48-36h0c13.26-21.37,31.41-28.21,47.69-37.56C3920,435.64,3918,417.54,3947.16,397c17.93-12.63,56.16-15,131.9-19.34,73.94-4.21,111.27-6.43,126.82-2.28,55,14.67,57.16,39.32,104.5,47.8,52.73,9.44,68.32-17.86,131.9-25,45.06-5.09,65.79,5.4,163.35,31.87,41.5,11.26,90.91,22.68,189.72,45.52,158.49,36.63,237.73,55,276,44.38,112.73-31.15,132.77-129.86,221-119.53,31.13,3.64,31.93,16.31,120.93,75.15,63.82,42.18,152.94,112.68,236.4,104.7,25.34-2.42,73.1-13.05,126.86-67.41Q5783.51,730.07,5790.54,947.32Z" transform="translate(0 -328.4)"/><path class="cls-1" d="M7716.5,947.32H5734.38c10.43-303.08,19.52-399.05,26.86-409.33,0,0,13-19.46,22.92-37.93h0c2.7-2.58,6-5.83,9.86-9.69,6.77-6.86,11.6-12.15,12.71-13.36,47.67-52,91.19-99.51,128.83-121.25,22.95-13.26,67.21-30.51,140.15-12.39,17.81,12.55,65.72,44.25,106.87,45.06a119.19,119.19,0,0,0,13.49-.56c17.33-3.41,28.25-17.11,64.14-28.73,47.48-15.37,86-9.33,141.16,0,30.12,5.09,66.78,13.67,188.54,62,134,53.14,120.79,55.4,149.06,59.81,72.67,11.33,130.76-4.63,225-30.52,71.71-19.69,87.41-43.14,133.09-37.17,39.75,5.19,57.79,23.88,106.87,20.28,35.2-2.59,42.94-13.45,68.89-9,41.26,7,46.2,38.07,80.17,56.44,50.69,27.41,102.34-9.35,304.43-75.67,25.78-8.46,46.86-15.06,60-19.11Z" transform="translate(0 -328.4)"/><path class="cls-1" d="M9634.85,947.32H7695l14.37-559.22c24.75-16.18,41.51-29.35,53.72-40.27,7.86-7,22.11-19.81,40.16-19.07a17.33,17.33,0,0,1,2.53.31c19.8,3.83,20.7,27.91,46.14,47.52,3.75,2.89,13,9.53,55.37,18.76,70,15.24,73.09,3.29,95.75,16.25,38.51,22,36.66,60.6,65.76,63.78,23.49,2.56,32.4-21.72,58.83-20,27.7,1.79,46.12,30.28,51.91,37.51,53.33,66.57,299.23-78.84,466.06-96.28,276.61-28.94,468.64,281.46,657.09,219.46,70.47-23.19,115.29-37.93,149.87-86.25,25.94-36.24,40.47-83.45,81.48-95.58,9.83-2.91,17.78-2.43,34-4.47,6.84-.86,14.17-2.14,22.33-3.69A388,388,0,0,0,9634.25,415q-1.4,142.74-1.12,285.46Q9633.37,823.88,9634.85,947.32Z" transform="translate(0 -328.4)"/><path class="cls-1" d="M11621.18,947.32H9634.31V411.72c26.91,7.27,46.77,4.89,59.71,1.55,42.83-11.07,93.55-54.47,120.41-60.6,28.85-6.59,22.77,4.57,89.3,0,39.18-2.69,53.49-7.4,65.23,4.75,20,20.74,3.51,60.49,22.07,78.43,9.22,8.9,26.47,11.83,60.21-4.76a363.78,363.78,0,0,0,55.84,40.23c117.32,68.37,211.73,29.09,332.49,45.32,28,3.77,48,9.12,64.78,15.78,51.47,20.38,64.92,38.59,86.26,45.46,78.76,25.37,118.94-176.25,248.32-201.45,79.41-15.46,142.82,45.19,244.84,0,20.24-9,16.83-8.39,29.46-11.71,94.36-24.85,139,77.16,246.48,75.92,28.28-.33,38.55-7.54,57.37-9.83h0a250,250,0,0,0,27.92.32c16.74-1,46.72,35.18,76.66,62.6a400.86,400.86,0,0,0,39,31.39Q11590.92,736.22,11621.18,947.32Z" transform="translate(0 -328.4)"/><path class="cls-1" d="M13546.55,947.32H11528V537.27a51.29,51.29,0,0,1,0-11.2c1.67-14.59,9.86-27.55,15.49-36.47h0c13.25-21.61,31.4-28.53,47.68-38,37.75-21.93,35.77-40.23,64.94-61,17.92-12.78,56.16-15.22,131.89-19.57,74-4.25,111.28-6.5,126.82-2.3,55,14.84,57.17,39.77,104.51,48.35,52.72,9.55,68.31-18.07,131.89-25.33,45.06-5.14,65.8,5.46,163.35,32.24,41.5,11.39,90.91,22.94,189.73,46,158.48,37.06,237.72,55.59,276,44.9,112.73-31.51,132.77-131.37,221-120.93,31.13,3.69,31.94,16.51,120.94,76,63.81,42.67,152.93,114,236.39,105.92,25.34-2.45,73.11-13.2,126.86-68.19Z" transform="translate(0 -328.4)"/><path class="cls-1" d="M9325.19,1291.32" transform="translate(0 -328.4)"/><path class="cls-1" d="M15403.74,947.32H13448.68c-43.16-117.51-59.88-263.73,21.31-414.16q10.65-19.74,22.82-38.36h0c2.69-2.6,6-5.89,9.82-9.8,6.75-6.93,11.56-12.29,12.66-13.51,47.48-52.61,90.83-100.65,128.32-122.63,22.86-13.42,66.94-30.87,139.58-12.54,17.75,12.69,65.46,44.76,106.45,45.58a116.72,116.72,0,0,0,13.43-.57c17.26-3.45,28.14-17.3,63.89-29.06,47.29-15.54,85.66-9.43,140.59,0,30,5.16,66.52,13.83,187.79,62.68,133.43,53.74,120.3,56,148.46,60.48,72.38,11.47,130.24-4.67,224.1-30.86,71.42-19.92,87.07-43.64,132.56-37.6,39.59,5.25,57.56,24.16,106.45,20.51,35-2.62,42.76-13.6,68.61-9.13,39.5,6.84,46.8,37.08,79.84,57.08,51,30.85,115.74,8.23,209.43-24.5a736.42,736.42,0,0,0,137.95-65.11Q15403.24,666.57,15403.74,947.32Z" transform="translate(0 -328.4)"/><path class="cls-1" d="M15407.74,399.84" transform="translate(0 -328.4)"/></svg>