<svg id="Layer_1" data-name="Layer 1" xmlns="http://www.w3.org/2000/svg" viewBox="0 0 15407.66 969.87"><defs><style>.cls-1{fill:#f5c33b;}.cls-2{fill:#cb7413;}.cls-3{fill:#9d1a22;}.cls-4{fill:#f6c43c;}.cls-5{fill:#cc7400;}.cls-6{fill:#9d1b21;}</style></defs><path class="cls-1" d="M2640.65,283.26" transform="translate(0 -150.9)"/><rect class="cls-1" x="13480.75" y="0.59" width="1926.9" height="693.79"/><path class="cls-2" d="M15407.65,909.41l-1927,2.06V395.77c275.45-62,379.86-58.91,417.48-38.49A362.59,362.59,0,0,0,13943,379c27.18,10.88,53.9,16.94,105.26,29.83,131.21,32.91,204.71-21.88,323.35,18.88,83.92,28.84,94,66,158.18,61.42,18.54-1.32,23-4.8,142.16-43.27,78.76-25.43,79.46-22.63,98.11-32.11,138.66-70.46,136-69.35,140.16-71.19,40.79-18.09,194.22-39.09,194.22-39.09,23.42-3.17,41.6-7.81,57-13.21,34.22-12,44.54-21.15,89.44-40,20.25-8.49,42.28-17.34,71-24a348.55,348.55,0,0,1,85.74-8.89Z" transform="translate(0 -150.9)"/><path class="cls-3" d="M15407.65,1119.4l-1926.84-.36q-.09-296.86-.19-593.73c98.35-25.28,174.25-31.61,206.91-29.77a485.56,485.56,0,0,1,59.22,7.36c10.14,2,21,4.53,32.71,7.87,66.85,19,104.76,49.09,160.84,59.45,24.71,4.57,44.29,2.17,69.71,2.1,149.2-.44,158.91-31.77,214-7,26.7,12,49.12,30.51,115.66,59.51,11.58,5,19.55,8.52,28,11.68,32.14,12,79.8,22.82,176.81,9.77,83-11.15,82.9-23.71,140.54-24,59.51-.29,59.87,13.1,93.34,5.84,75.17-16.32,81.66-85.69,142.85-97.72,6.79-1.34,12.24-1.57,17.38-.73,31.43,5.1,46.82,25.62,59.38,32.24,49.91,26.32,149.71-153.8,293.4-183.54,48-9.93,90.22-1,116.31,7Q15407.66,752.4,15407.65,1119.4Z" transform="translate(0 -150.9)"/><path class="cls-1" d="M12267,281.53" transform="translate(0 -150.9)"/><rect class="cls-1" x="11538.18" y="0.95" width="1942.81" height="410.46"/><path class="cls-2" d="M13491.83,943.82H11538.42l-.24-651.54c182.43,7.2,326.3,42.14,425.51,73.58,100.75,31.92,123,50,219.76,71.33,92.34,20.4,234.52,36.84,393.5-22.62,43-16.07,64.75-29.71,100.73-21.83,86.39,18.92,105.66,129.33,187.2,158.68,26.51,9.55,19-4.8,156.68-43.67,155-43.75,167.08-27.69,210.6-67,66.87-60.36,74.79-66,96.11-69.54,32.63-5.45,41,20.85,90.06,29.17,36.93,6.25,69.59-2.29,92.17-11Z" transform="translate(0 -150.9)"/><path class="cls-3" d="M13513.69,1119.24H11538.6l-.23-616.33c254.28-65.57,419.45-12.9,524.95,50.63,73.28,44.12,143,108.68,253.22,105.36,109.56-3.31,122.31-68.08,243.94-82.1,148.79-17.16,150.84,77.94,307.77,61.57,112.73-11.76,134-31.74,247-12.31,43.57,7.48,71.2,17.89,119.4,10.94a199,199,0,0,0,33.32-7.52c34.07-11,89.46-37,108.43-46l4.3-2,.79-.38c30.42-14.76,47.74-36.1,51.83-40.66,11.62-13,38.07-26.35,103.19-28Z" transform="translate(0 -150.9)"/><rect class="cls-1" x="9636.41" width="1926.82" height="292.35"/><path class="cls-1" d="M11563.23,350.31H9631.37V150.9c148.53,30.83,372.32,65.31,637.92,56.62,235-7.68,243.65-40.69,466.86-40.62,302.27.1,459.77,60.68,681.18,23.39,70-11.79,118.73-28.7,145.9-39.39Z" transform="translate(0 -150.9)"/><path class="cls-2" d="M11574.25,903.61H9631.37V231.09c94.6,22.39,241.85,60.74,423,123.16,162.68,56.05,167.14,67.58,218.57,67.8,203.63.87,286.77-179.21,469.53-137,77.49,17.89,52.48,47.94,136.61,70.57,209.77,56.42,367.64-129.73,490.78-24.91,30.38,25.86,43.28,34.62,57.68,33.21,21-2.05,19.39-31.43,47.54-51.76,27-19.49,67.26-20.68,97.82-18.45Q11573.57,598.67,11574.25,903.61Z" transform="translate(0 -150.9)"/><path class="cls-3" d="M11583.27,1119.24H9631.37V406.4c150.23,110.21,376.57,233.46,645.2,202.41,186.5-21.55,232.05-98.83,352.07-131,48.85-13.09,88.75-11.91,120.13-14.2,272.35-19.88,414.88,24.75,742.32,26.95,48.38.33,86.65-.41,103.83-.8Q11589.1,804.51,11583.27,1119.24Z" transform="translate(0 -150.9)"/><rect class="cls-1" x="7701.38" y="0.49" width="1929.61" height="692.24"/><path class="cls-1" d="M9631,623.56H7701.38V151.39C7987,263.22,8219.62,296.64,8338.55,285.46c81.17-7.63,136.6-21.7,136.6-21.7,114.78-29.65,160.56-74.61,329.72-74.48,301.91.23,459.24,143.68,680.39,55.38,69.89-27.91,118.59-67.95,145.72-93.27Z" transform="translate(0 -150.9)"/><path class="cls-2" d="M9647.16,909.09l-1945.78.58V350.81c71.05-36.76,124.41-35.66,160.33-27.57,74.44,16.77,104.95,70.85,174.16,61.28,5.56-.77,42.06-4.84,85.5-8.33,12.69-1,27.83-1,47.8,1.43,54.15,6.48,68.66,22,107.11,30,97,20.18,117.52-52.06,212.83-57.88,107.23-6.54,110.4,83.15,267.68,101.68,74.4,8.77,137-3.84,151.16-6.85,55.6-11.81,52.9-21.5,99.36-32,69.63-15.79,92.2,2.63,268.86,13.81,34.88,2.21,48.41,2.4,58.89,1.22,3.25-.37,5.54-.7,8-1.22,21.9-4.61,34.09-18.12,38.69-23.08,38.77-41.81,86.85-78.1,130.24-117.16,38.38-34.56,57.78-47.79,86.16-51.31,20-2.48,37.47.72,49.09,3.83Z" transform="translate(0 -150.9)"/><path class="cls-3" d="M9656.3,1119.24H7694.63l6.78-524.7c22.65-32.15,79.91-104.08,173.05-132,28.33-8.5,152.48-46.81,215.37,30.64,25.07,30.87,29.24,63.39,59,75.05,29,11.35,50.71-9.45,92.65-29.08,27.87-13,70.09-28.11,126.4-30.64a803.93,803.93,0,0,0,141.15,92.31c22.44,11.44,39.2,18.65,55,25.23,97.46,40.66,146.19,61,195.95,51.69,68.74-12.85,78.4-55.37,151.65-54.2,32.54.51,48.69,9.73,93.94,5.8,37.33-3.25,66.67-10.86,91.17-20.31,117.4-45.25,136.54-59.14,158.55-63.69a141.6,141.6,0,0,1,17.42-2c59.83-4.23,89.37,12.7,120.89,9.19,32.31-3.6,28.37-24.4,97.63-80.41,69.43-56.14,104.6-60.49,119-60,2,.07,3.79.26,3.79.26a83.24,83.24,0,0,1,20.23,1.53,71.32,71.32,0,0,1,40.07,23Z" transform="translate(0 -150.9)"/><path class="cls-3" d="M8925.93,1200.41" transform="translate(0 -150.9)"/><rect class="cls-4" x="5789.36" y="2.4" width="1911.57" height="693.74"/><path class="cls-4" d="M7707.94,626.5H5784.35V153.3c147.9,73.16,370.73,155,635.19,134.37,234-18.24,242.6-96.57,464.86-96.39,301,.23,457.81,144,678.27,55.49,69.68-28,118.22-68.09,145.27-93.47Z" transform="translate(0 -150.9)"/><path class="cls-5" d="M7724.74,912.65H5784.35q-.06-311.71-.11-623.42c56.49-10.49,102.52-4.37,137.44,5.59,95.87,27.33,111.24,84.43,197.07,92.12,52.63,4.72,63.57-15.25,132.86-6.91,54,6.49,68.44,22,106.76,30,96.72,20.22,117.14-52.18,212.13-58,106.88-6.56,110,83.32,266.8,101.9,74.16,8.78,136.55-3.85,150.66-6.87,40.47-8.64,71.37-20.95,99-32.1,71.31-28.75,84.11-45.44,141.49-71.19,74.52-33.45,118-53,173.75-44.78,26.47,3.9,33.29,10.76,67.06,26.85,5.46,2.61,46.47,30.86,93,37.8,1.35.2,2.68.38,4.2.51,18.09,1.59,43.94,2.78,99.11-9.18,15.74-3.42,35.95-8.32,59.11-15.32Q7724.72,626.16,7724.74,912.65Z" transform="translate(0 -150.9)"/><path class="cls-6" d="M7746.73,1119.24H5784.35q2-291.48,4-582.94c44.34-18.35,117.4-42.15,207.56-39C6149.59,502.75,6176.11,583,6324,574.1c83.86-5,112.36-32.84,192.08-12.67,51.26,13,54.27,28.2,143.3,65.2,98.52,40.94,147.77,61.41,198.07,52,69.47-12.94,79.24-55.76,153.28-54.58,32.9.52,49.22,9.8,95,5.84,151.62-13.14,172.88-97.31,270-86.54,86.11,9.54,101.14,102,186,97.71,34.6-1.74,65-19.39,108.9-44.9a429.29,429.29,0,0,0,76.14-55.9Z" transform="translate(0 -150.9)"/><rect class="cls-1" x="3854.39" y="2.32" width="1929.47" height="693.79"/><path class="cls-2" d="M5809.11,913.2H3854.26V397.5c280.27-62,386.52-58.91,424.79-38.49a372.29,372.29,0,0,0,45.68,21.73c27.66,10.88,54.84,16.94,107.11,29.83,133.5,32.91,208.3-21.88,329,18.88,85.39,28.84,95.62,66,160.95,61.42,18.87-1.32,23.39-4.8,144.65-43.27,80.15-25.43,80.85-22.63,99.83-32.11,141.09-70.46,138.39-69.35,142.62-71.19,81.15-35.38,135-58.83,197.62-39.09,74.53,23.49,93.86,68.16,138.82,59,30.19-6.18,29.82-32.95,75.6-57.43,31.42-16.79,64.85-22,88.17-23.74Z" transform="translate(0 -150.9)"/><path class="cls-3" d="M5839.16,1120.77H3854.46q-.11-296.86-.2-593.73c101.25-25.28,179.39-31.61,213-29.77a513.69,513.69,0,0,1,61,7.36c10.43,2,21.62,4.53,33.68,7.87,68.81,19,107.85,49.1,165.58,59.46,25.44,4.56,45.6,2.17,71.76,2.09,153.61-.44,163.6-31.77,220.3-7,27.48,12,50.57,30.51,119.07,59.51,11.92,5,20.12,8.52,28.82,11.68,33.09,12,82.16,22.82,182,9.78,85.41-11.16,85.35-23.72,144.68-24,61.27-.29,61.64,13.1,96.1,5.84,77.38-16.32,84.07-85.69,147.06-97.72,37.79-7.22,35.45,17.74,158.23,69.8,80.87,34.28,120.53,39.84,144.41,39.64a88.79,88.79,0,0,0,11.76-.55c36.62-5.28,50.53-42,69.22-64.76,16-19.42,47.72-43.63,118.22-59Z" transform="translate(0 -150.9)"/><rect class="cls-1" x="1911.82" y="2.68" width="1942.81" height="393.24"/><path class="cls-2" d="M3865.47,912.33H1912.06l-.24-624.21c182.44,6.9,326.3,40.37,425.51,70.49,100.75,30.58,123,47.87,219.76,68.34,92.34,19.54,234.52,35.3,393.5-21.67,43-15.4,64.76-28.47,100.73-20.92,86.39,18.13,105.66,123.91,187.2,152,26.51,9.15,19-4.6,156.68-41.84,155-41.92,167.09-26.53,210.6-64.16,38.87-33.62,59.48-72.09,96.12-66.62,27.24,4.07,30.43,37,69.72,41.51,4.09.47,5.19.15,21.26-1.2,7.69-.65,8.95-.65,20.48-1.62,7.86-.65,24.16-2.38,54.1-7.65Z" transform="translate(0 -150.9)"/><path class="cls-3" d="M3887.33,1120H1912.24q-.12-314.11-.23-628.24c254.28-66.84,419.45-13.15,525,51.61,73.28,45,143,110.78,253.22,107.39,109.56-3.37,122.31-69.39,243.94-83.68,148.79-17.49,150.84,79.45,307.77,62.76,112.73-12,134-32.35,247-12.55,43.57,7.62,71.2,18.24,119.4,11.16a196.18,196.18,0,0,0,33.32-7.67c34.07-11.19,89.46-37.66,108.43-46.87l4.3-2.09.79-.39c25.34-12.46,53.2-29.59,53.2-29.59,12.91-8,36.85-17.45,85.16-24.51Q3890.43,818.67,3887.33,1120Z" transform="translate(0 -150.9)"/><rect class="cls-1" y="2.5" width="1931.86" height="304.83"/><path class="cls-1" d="M1931.86,361.32H0V153.39c148.54,32.15,372.32,68.1,637.92,59,235-8,243.65-42.43,466.86-42.35,302.27.1,459.77,63.27,681.19,24.39,70-12.29,118.72-29.93,145.89-41.08Z" transform="translate(0 -150.9)"/><path class="cls-2" d="M1942.88,938.25H0V237c94.6,23.35,241.86,63.34,423,128.42,162.68,58.44,167.14,70.47,218.58,70.7,203.62.91,286.76-186.86,469.53-142.85,77.48,18.66,52.47,50,136.6,73.59,209.77,58.83,367.64-135.27,490.78-26,30.38,27,43.29,36.09,57.68,34.63,20.53-2.09,20.34-30.4,47.55-54s67.47-30.25,98.18-32.22Q1942.38,613.81,1942.88,938.25Z" transform="translate(0 -150.9)"/><path class="cls-3" d="M1951.9,1120.77H0v-701c150.23,108.37,376.58,229.57,645.2,199,186.5-21.2,232-97.19,352.07-128.82,48.85-12.88,88.75-11.72,120.13-14,320.81-23,470.73,70.88,742.33,26.51a959.42,959.42,0,0,0,104.19-23Q1957.91,800.16,1951.9,1120.77Z" transform="translate(0 -150.9)"/></svg>